<svg xmlns="http://www.w3.org/2000/svg" xmlns:xlink="http://www.w3.org/1999/xlink" width="328.193" height="731.488" viewBox="0 0 328.193 731.488"><defs><style>.cls-1{isolation:isolate;}.cls-2{fill:#225e66;}.cls-3{fill:#ffcf9f;}.cls-10,.cls-14,.cls-15,.cls-20,.cls-22,.cls-24,.cls-26,.cls-29,.cls-4,.cls-5,.cls-7{mix-blend-mode:multiply;}.cls-4{fill:url(#linear-gradient);}.cls-5{fill:url(#linear-gradient-2);}.cls-6{fill:#2d5b6f;}.cls-7{fill:url(#linear-gradient-3);}.cls-8{fill:#dfe5e9;}.cls-9{fill:#57cad7;}.cls-10{fill:url(#linear-gradient-4);}.cls-11,.cls-23{opacity:0.35;}.cls-12{fill:#4198a1;}.cls-13{fill:#79d5df;}.cls-14{fill:url(#linear-gradient-5);}.cls-15{fill:url(#linear-gradient-6);}.cls-16{fill:#744100;}.cls-17{fill:#a7acaf;}.cls-18{fill:#5c9b68;}.cls-19{fill:#7bce8a;}.cls-20{fill:url(#linear-gradient-7);}.cls-21{fill:#f7bc55;}.cls-22{fill:url(#linear-gradient-8);}.cls-23,.cls-27{fill:none;stroke:#000;stroke-miterlimit:10;}.cls-24{fill:url(#linear-gradient-9);}.cls-25{fill:#1f0a00;}.cls-26{fill:url(#linear-gradient-10);}.cls-27{stroke-linecap:round;stroke-width:2px;}.cls-28{fill:#fff;}.cls-29{fill:url(#linear-gradient-11);}.cls-30{fill:url(#linear-gradient-12);}</style><linearGradient id="linear-gradient" x1="177.272" y1="328.223" x2="193.86" y2="328.223" gradientTransform="matrix(-1, 0, 0, 1, 268.351, 0)" gradientUnits="userSpaceOnUse"><stop offset="0" stop-color="#ffcf9f"/><stop offset="0.183" stop-color="#ffdbb6"/><stop offset="0.541" stop-color="#ffeede"/><stop offset="0.826" stop-color="#fffbf6"/><stop offset="1" stop-color="#fff"/></linearGradient><linearGradient id="linear-gradient-2" x1="102.658" y1="130.48" x2="132.247" y2="130.48" xlink:href="#linear-gradient"/><linearGradient id="linear-gradient-3" x1="50.663" y1="500.244" x2="185.011" y2="500.244" gradientTransform="matrix(-0.999, 0.053, 0.053, 0.999, 242.605, -8.158)" gradientUnits="userSpaceOnUse"><stop offset="0" stop-color="#15b5c6"/><stop offset="0.095" stop-color="#22b9c9"/><stop offset="0.27" stop-color="#43c4d1"/><stop offset="0.504" stop-color="#79d5de"/><stop offset="0.787" stop-color="#c3ecf0"/><stop offset="1" stop-color="#fff"/></linearGradient><linearGradient id="linear-gradient-4" x1="8.65" y1="239.068" x2="146.28" y2="239.068" gradientTransform="matrix(-1, 0, 0, 1, 268.351, 0)" xlink:href="#linear-gradient-3"/><linearGradient id="linear-gradient-5" x1="88.579" y1="135.842" x2="123.561" y2="135.842" gradientTransform="matrix(-1, 0, 0, 1, 268.351, 0)" xlink:href="#linear-gradient-3"/><linearGradient id="linear-gradient-6" x1="94.134" y1="94.568" x2="135.916" y2="94.568" xlink:href="#linear-gradient"/><linearGradient id="linear-gradient-7" x1="35.717" y1="362.015" x2="123.939" y2="362.015" gradientTransform="matrix(-1, 0, 0, 1, 268.351, 0)" xlink:href="#linear-gradient-3"/><linearGradient id="linear-gradient-8" x1="38.177" y1="331.396" x2="133.932" y2="331.396" gradientTransform="matrix(-1, 0, 0, 1, 268.351, 0)" gradientUnits="userSpaceOnUse"><stop offset="0" stop-color="#f7bc55"/><stop offset="0.123" stop-color="#f8c162"/><stop offset="0.349" stop-color="#f9ce83"/><stop offset="0.651" stop-color="#fce3b9"/><stop offset="1" stop-color="#fff"/></linearGradient><linearGradient id="linear-gradient-9" x1="109.355" y1="686.775" x2="133.723" y2="686.775" gradientTransform="matrix(-0.999, 0.053, 0.053, 0.999, 242.605, -8.158)" xlink:href="#linear-gradient"/><linearGradient id="linear-gradient-10" x1="152.426" y1="684.29" x2="176.794" y2="684.29" gradientTransform="matrix(-0.999, 0.053, 0.053, 0.999, 242.605, -8.158)" xlink:href="#linear-gradient"/><linearGradient id="linear-gradient-11" x1="58.223" y1="143.874" x2="96.708" y2="143.874" xlink:href="#linear-gradient"/><linearGradient id="linear-gradient-12" x1="51.969" y1="235.343" x2="99.063" y2="235.343" gradientTransform="matrix(-1, 0, 0, 1, 268.351, 0)" gradientUnits="userSpaceOnUse"><stop offset="0" stop-color="#20a2b6"/><stop offset="0.304" stop-color="#2dabbe"/><stop offset="0.86" stop-color="#4ec3d1"/><stop offset="1" stop-color="#57cad7"/></linearGradient></defs><g class="cls-1"><g id="Layer_1" data-name="Layer 1"><path class="cls-2" d="M172.272,122.875A60.415,60.415,0,0,0,140.3,121.5a7.369,7.369,0,0,0-3.062,3.308,7.2,7.2,0,0,0-.643,3,37,37,0,0,0,12,3.857c4.317.6,13.2,1.829,19.627-3.635A16.975,16.975,0,0,0,172.272,122.875Z"/><path class="cls-3" d="M75.752,271.608A388.635,388.635,0,0,0,79.7,366.3a17.438,17.438,0,0,0-1.125,9.107,9.742,9.742,0,0,0,1.607,5.062c2.339,3.445,6.982,5.039,7.8,4.1.383-.443-.094-1.435-.562-2.411-1.361-2.833-3.074-3.114-3.7-4.661-1.338-3.323,3.966-8.483,4.447-8.2.277.165-1.082,2.135-.67,5.062.1.738.235,1.667.6,1.728.885.148,3.228-4.712,2.959-9.683a15.134,15.134,0,0,0-1.928-6.536L87.4,272.642Z"/><path class="cls-4" d="M75.752,271.608A388.635,388.635,0,0,0,79.7,366.3a17.438,17.438,0,0,0-1.125,9.107,9.742,9.742,0,0,0,1.607,5.062c2.339,3.445,6.982,5.039,7.8,4.1.383-.443-.094-1.435-.562-2.411-1.361-2.833-3.074-3.114-3.7-4.661-1.338-3.323,3.966-8.483,4.447-8.2.277.165-1.082,2.135-.67,5.062.1.738.235,1.667.6,1.728.885.148,3.228-4.712,2.959-9.683a15.134,15.134,0,0,0-1.928-6.536L87.4,272.642Z"/><path class="cls-3" d="M165.693,129.784a18.382,18.382,0,0,1-3.064-5.141,19.112,19.112,0,0,1-.8-10.929l-16.714.161a14.453,14.453,0,0,1-2.893,9.643,14.014,14.014,0,0,1-5.625,4.286c-1.32,8.32,0,16.3,4.286,18.643C146.344,149.437,158.1,144.057,165.693,129.784Z"/><path class="cls-5" d="M165.693,129.784a18.382,18.382,0,0,1-3.064-5.141,19.112,19.112,0,0,1-.8-10.929l-16.714.161a14.453,14.453,0,0,1-2.893,9.643,14.014,14.014,0,0,1-5.625,4.286c-1.32,8.32,0,16.3,4.286,18.643C146.344,149.437,158.1,144.057,165.693,129.784Z"/><path class="cls-6" d="M212.323,379.084a138.843,138.843,0,0,1-1.207,30.083,137.275,137.275,0,0,1-6.726,26.508c-11.624,32.735-23,108.15-27.774,163.184-1.689,19.472-3.359,45.676-3.553,76.9a44.693,44.693,0,0,1-30.1.84L131.51,474.209q.066,35.005-.441,70.837-.972,67.879-3.923,132.82l-9.662,3.944-14.146.319c-3.4-21.042-7.562-49.4-11.259-83.093C89.1,571.848,86.3,546.36,84.964,513.149c-1.752-43.574-3.342-90,7.937-147.428,3.905-19.88,8.332-35.891,11.411-46.17a71.726,71.726,0,0,1,19.869-2.817C174.258,316.8,207.471,370.926,212.323,379.084Z"/><path class="cls-7" d="M212.323,379.084a138.843,138.843,0,0,1-1.207,30.083,137.275,137.275,0,0,1-6.726,26.508c-11.624,32.735-23,108.15-27.774,163.184-1.689,19.472-3.359,45.676-3.553,76.9a44.693,44.693,0,0,1-30.1.84L131.51,474.209q.066,35.005-.441,70.837-.972,67.879-3.923,132.82l-9.662,3.944-14.146.319c-3.4-21.042-7.562-49.4-11.259-83.093C89.1,571.848,86.3,546.36,84.964,513.149c-1.752-43.574-3.342-90,7.937-147.428,3.905-19.88,8.332-35.891,11.411-46.17a71.726,71.726,0,0,1,19.869-2.817C174.258,316.8,207.471,370.926,212.323,379.084Z"/><path class="cls-8" d="M147.564,146.77a7.477,7.477,0,0,1-9.249-2.9c-14.3,20.539-36.129,58.1-43.186,109.5a246.969,246.969,0,0,0,0,66.857c9.881-3.35,16.64-2.387,21.053-.8,5.307,1.9,6.788,4.551,11.893,5.785,0,0,8.242,1.993,19.286-4.017,16.942-9.221,42.34-58.66,30.482-113.465C175.081,194.965,168.063,171.582,147.564,146.77Z"/><path class="cls-9" d="M179.772,133.161a145.253,145.253,0,0,1,24.643,45.857c13.477,42.25-4.381,56.946,12,87.857,9.89,18.663,22.187,24.228,35.571,54.857a186.975,186.975,0,0,1,7.714,21c-10.2-9.426-19.234-12.3-25.285-13.285-24.529-3.984-36.936,17.145-69.429,15.428-15.433-.815-21.408-6.045-23.143-7.714-8.595-8.267-10.032-22.322-10.286-25.714-.531-7.127.9-10.905-1.285-18.429a42.267,42.267,0,0,0-5.572-11.571c-10.155-16.815,12.572-36.381,9.857-69.858-1.134-13.994-6.381-26.308,1.048-35.412,2.225-2.727,4.452-3.774,7.095-7.659,5.253-7.72,5.434-16.773,4.715-23.357a6.743,6.743,0,0,1-.054-4.286,7.108,7.108,0,0,1,1.768-2.571C151.3,136.3,163.264,134.243,179.772,133.161Z"/><path class="cls-10" d="M179.772,133.161a145.253,145.253,0,0,1,24.643,45.857c13.477,42.25-4.381,56.946,12,87.857,9.89,18.663,22.187,24.228,35.571,54.857a186.975,186.975,0,0,1,7.714,21c-10.2-9.426-19.234-12.3-25.285-13.285-24.529-3.984-36.936,17.145-69.429,15.428-15.433-.815-21.408-6.045-23.143-7.714-8.595-8.267-10.032-22.322-10.286-25.714-.531-7.127.9-10.905-1.285-18.429a42.267,42.267,0,0,0-5.572-11.571c-10.155-16.815,12.572-36.381,9.857-69.858-1.134-13.994-6.381-26.308,1.048-35.412,2.225-2.727,4.452-3.774,7.095-7.659,5.253-7.72,5.434-16.773,4.715-23.357a6.743,6.743,0,0,1-.054-4.286,7.108,7.108,0,0,1,1.768-2.571C151.3,136.3,163.264,134.243,179.772,133.161Z"/><path class="cls-11" d="M133.843,134.447a45.785,45.785,0,0,0-6.391,3.066,51.839,51.839,0,0,0-5.715,3.942c-17.8,14.37-28.876,57.84-28.876,57.84-4.641,18.2-9.3,39.1-13.339,62.437.255.278,3.543,3.751,7.714,2.893a7.2,7.2,0,0,0,3.214-1.607c2.251,14.538.352,25.229-1.928,32.464C85.63,304.658,80.95,312,77.593,327.3c-1.029,4.69-1.6,8.615-1.928,11.25a82.822,82.822,0,0,1,13.5.964c6.983,1.082,9.725,2.437,13.178.964,4.409-1.88,6.24-6.777,7.072-9,3.067-8.2.936-15.792-.322-21.214,0,0-2.382-10.284-3.536-32.464-1.456-28,9.29-53.386,11.643-58.715,2.586-5.856,5.513-11.211,7.63-20.448,2.428-10.6,1.4-15.893,2.442-24.337.964-7.849,3.757-18.816,12.053-31.661Z"/><path class="cls-9" d="M129.843,134.447a45.785,45.785,0,0,0-6.391,3.066,51.839,51.839,0,0,0-5.715,3.942c-17.8,14.37-28.876,57.84-28.876,57.84-4.641,18.2-9.3,39.1-13.339,62.437.255.278,3.543,3.751,7.714,2.893a7.2,7.2,0,0,0,3.214-1.607c2.251,14.538.352,25.229-1.928,32.464C81.63,304.658,76.95,312,73.593,327.3c-1.029,4.69-1.6,8.615-1.928,11.25a82.822,82.822,0,0,1,13.5.964c6.983,1.082,9.725,2.437,13.178.964,4.409-1.88,6.24-6.777,7.072-9,3.067-8.2.936-15.792-.322-21.214,0,0-2.351-10.133-3.536-32.464-.35-6.6-1.934-36.447,13.5-59.786,3.348-5.063,8.064-10.677,9.965-20.25,1.517-7.642-.7-8.054.321-19.179,1.414-15.455,6.631-25,7.822-27.107a57.435,57.435,0,0,1,6.16-8.839Z"/><path class="cls-12" d="M75.522,261.732a6.047,6.047,0,0,0-2.893,2.732,5.5,5.5,0,0,0-.482,4.018c.785,2.351,3.59,3.2,5.785,3.857a18.941,18.941,0,0,0,9.464.3c-.083-2-.24-4.1-.5-6.305q-.2-1.71-.45-3.319a7.552,7.552,0,0,1-10.928-1.286Z"/><path class="cls-11" d="M86.45,263.018a65.906,65.906,0,0,1,1.125-24.75c.568-2.354,1.07-3.851,1.688-5.786,4.863-15.223,6.119-23.668,9.08-34.393a182.5,182.5,0,0,1,8.676-24.532c1.568-3.58,2.259-5.036,2.253-5.039a167.334,167.334,0,0,0-14.625,36.161c-1.635,6.016-1.766,8.014-4.179,16.312-2.826,9.719-3.958,11.485-5.084,17.985a108.711,108.711,0,0,0-1.4,14.881c-.149,4.178-.074,7.723.043,10.372Z"/><path class="cls-13" d="M144.79,137.5l5.972,11.308a40.072,40.072,0,0,0,22.956-9.058,36.752,36.752,0,0,0,6.054-6.589,11.444,11.444,0,0,0-3.643-8.2,10.284,10.284,0,0,0-3.857-2.089,30.816,30.816,0,0,1-5.572,6.536C158.494,136.663,148.638,137.419,144.79,137.5Z"/><path class="cls-14" d="M144.79,137.5l5.972,11.308a40.072,40.072,0,0,0,22.956-9.058,36.752,36.752,0,0,0,6.054-6.589,11.444,11.444,0,0,0-3.643-8.2,10.284,10.284,0,0,0-3.857-2.089,30.816,30.816,0,0,1-5.572,6.536C158.494,136.663,148.638,137.419,144.79,137.5Z"/><path class="cls-13" d="M140.3,121.5a15.563,15.563,0,0,0-7.241,6.2c-3,5.045-2.688,11.664.643,17.25l8.572-7.072a9.783,9.783,0,0,1-4.5-4.5C136.07,129.691,137.063,124.988,140.3,121.5Z"/><path class="cls-3" d="M172.845,97.964a33.784,33.784,0,0,1-4.34,10.608c-1.565,2.49-9.248,14.711-18.964,13.5-8.465-1.056-12.94-11.617-14.135-14.437a30.8,30.8,0,0,1-2.258-14.492c-.323-1.223-2.662-10.711,3.375-18.482,5.992-7.714,16.915-9.461,24.911-5.947C171.435,73.11,176.959,85.784,172.845,97.964Z"/><path class="cls-15" d="M172.845,97.964a33.784,33.784,0,0,1-4.34,10.608c-1.565,2.49-9.248,14.711-18.964,13.5-8.465-1.056-12.94-11.617-14.135-14.437a30.8,30.8,0,0,1-2.258-14.492c-.323-1.223-2.662-10.711,3.375-18.482,5.992-7.714,16.915-9.461,24.911-5.947C171.435,73.11,176.959,85.784,172.845,97.964Z"/><path class="cls-16" d="M168.666,82.054c-.468,1.9-1.123,5.66.366,8.655.571,1.15.943,1.275,2.361,3.687,1.24,2.108,1.647,3.238,3.672.832,5.774-6.861,5.3-5.88,6.6-8.681,0,0,4.774-10.233,1.033-21.1-1.011-2.937-2.174-4.081-3.429-4.5a4.82,4.82,0,0,0-3.366.282,14.94,14.94,0,0,0-2.955-8.1c-.275-.362-4.392-5.612-10.383-5.625-3.19-.006-4.247,1.478-8.258,3.219a36.066,36.066,0,0,1-33-2.951,41.134,41.134,0,0,0-1.339,12.911c.326,5.754,1.8,9.885,3.609,14.827a96.236,96.236,0,0,0,8.98,18.226,12.6,12.6,0,0,0,2.77-9.841,13.064,13.064,0,0,0,4.944,7.484c5.916,4.011,13.954.472,17.506-1.091A30.261,30.261,0,0,0,168.666,82.054Z"/><path class="cls-17" d="M112.1,228.5a197.526,197.526,0,0,0,26.11,96.241q1.181,6.908,2.36,13.814a111.264,111.264,0,0,1-9.012-13.024c-2.4-4.06-9.492-16.558-15.643-44.4a293.527,293.527,0,0,1-6.3-44.81Q110.855,232.408,112.1,228.5Z"/><path class="cls-17" d="M112.337,236.2c-.464-4.633-1.053-11.349-1.458-19.464-.981-19.657-1.736-32.094,1.125-45.964a111.871,111.871,0,0,1,13.379-34.311l-3.274,1.883c-.419.693-1.069,1.79-1.824,3.155-11.719,21.194-12.563,41.816-13.037,57.666a199.129,199.129,0,0,0,2.559,38.143Z"/><path class="cls-17" d="M214.272,314.018a177.435,177.435,0,0,0-4.533-94.676q.024-5.372.049-10.744c2.074,5.349,4,11.007,5.716,16.974,10.034,34.934,8.873,67.085,4.982,91.66Z"/><path class="cls-11" d="M143.772,342.018a15.417,15.417,0,0,1,4.627,3.805c7.42-3.3,24.04-2.947,39.944-2.519,16.937.455,31.146.92,41.572,1.285,1.958,11.77-1.553,22.776-9.429,28.143a20.8,20.8,0,0,1-9.643,3.429,108.066,108.066,0,0,1,.548,10.927c0,2.108-.063,4.136-.173,6.076-3.253.3-6.9.727-10.875,1.354-6.658,1.051-33.231,5.987-41.786,6.429-2.172.112-5.616.24-8.357-1.929a4.653,4.653,0,0,1-.952-1c-2.363.439-5.254-4.177-8.048-8.639a35.072,35.072,0,0,1-5.143-15.214q-.72-16.878-1.442-33.755A16.582,16.582,0,0,1,143.772,342.018Z"/><path class="cls-18" d="M149.248,388.015c-2.363.438-5.254-4.178-8.048-8.64a35.072,35.072,0,0,1-5.143-15.214q-.72-16.878-1.442-33.755a16.582,16.582,0,0,1,9.157,1.612C161.31,341.209,156.2,386.725,149.248,388.015Z"/><path class="cls-19" d="M229.915,334.589a102.927,102.927,0,0,1,2.357,31.929c-.583,6.67-1.489,8.908-2.786,10.714-4.644,6.471-12.27,4.585-29.143,7.286-11.994,1.92-24.914,5.558-41.786,6.429-2.172.112-5.616.24-8.357-1.929-1.13-.895-3.395-3.173-4.5-18-.584-7.84.039-7.349-.643-14.786a110.731,110.731,0,0,1-.642-11.143,33,33,0,0,1,.181-5.744c2.222-7.013,23.567-6.584,43.747-6.041C205.28,333.759,219.489,334.224,229.915,334.589Z"/><path class="cls-20" d="M229.915,334.589a102.927,102.927,0,0,1,2.357,31.929c-.583,6.67-1.489,8.908-2.786,10.714-4.644,6.471-12.27,4.585-29.143,7.286-11.994,1.92-24.914,5.558-41.786,6.429-2.172.112-5.616.24-8.357-1.929-1.13-.895-3.395-3.173-4.5-18-.584-7.84.039-7.349-.643-14.786a110.731,110.731,0,0,1-.642-11.143,33,33,0,0,1,.181-5.744c2.222-7.013,23.567-6.584,43.747-6.041C205.28,333.759,219.489,334.224,229.915,334.589Z"/><path class="cls-11" d="M229.915,336.589c1.147-4.641-1.788-9.361-3.429-12-5.36-8.619-14.689-11.032-18.429-12-2.4-.62-5.63-1.209-25.714.643-9.393.866-14.217,1.3-20.357,2.357-17.277,2.962-22.691,6.422-25.554,10.5-.789,1.126-2.611,3.8-1.817,6.317.815,2.584,3.707,2.882,6.367,4.992,4.971,3.943,3.4,9.664,5.79,13.549,1.641,2.669,6.77,6.708,42.857.857C212.1,348.161,227.723,345.454,229.915,336.589Z"/><path class="cls-21" d="M229.915,334.589c1.147-4.641-1.788-9.361-3.429-12-5.36-8.619-14.689-11.032-18.429-12-2.4-.62-5.63-1.209-25.714.643-9.393.866-14.217,1.3-20.357,2.357-17.277,2.962-22.691,6.422-25.554,10.5-.789,1.126-2.611,3.8-1.817,6.317.815,2.584,3.707,2.882,6.367,4.992,4.971,3.943,3.4,9.664,5.79,13.549,1.641,2.669,6.77,6.708,42.857.857C212.1,346.161,227.723,343.454,229.915,334.589Z"/><path class="cls-22" d="M229.915,334.589c1.147-4.641-1.788-9.361-3.429-12-5.36-8.619-14.689-11.032-18.429-12-2.4-.62-5.63-1.209-25.714.643-9.393.866-14.217,1.3-20.357,2.357-17.277,2.962-22.691,6.422-25.554,10.5-.789,1.126-2.611,3.8-1.817,6.317.815,2.584,3.707,2.882,6.367,4.992,4.971,3.943,3.4,9.664,5.79,13.549,1.641,2.669,6.77,6.708,42.857.857C212.1,346.161,227.723,343.454,229.915,334.589Z"/><path class="cls-23" d="M225.415,354.3c1.178,1.489,1.446,3.642,1.714,5.785.148,1.191.856,6.86-1.5,10.929-.891,1.538-3.492,5.045-21.857,7.714-7.331,1.066-7.675.617-15,1.5-17.935,2.162-24.652,5.908-28.026,2.224-1.316-1.437-1.464-4.2-1.76-9.724-.308-5.752-.48-8.962.643-11.357,3.651-7.787,18.331-1.294,45-6.857C212.537,352.868,222.045,350.045,225.415,354.3Z"/><path class="cls-3" d="M169.315,677.03q-.49,6.411-.979,12.822a33.8,33.8,0,0,1-22.8-.941l-.167-11.6a44.736,44.736,0,0,0,23.941-.282Z"/><path class="cls-24" d="M169.315,677.03q-.49,6.411-.979,12.822a33.8,33.8,0,0,1-22.8-.941l-.167-11.6a44.736,44.736,0,0,0,23.941-.282Z"/><path class="cls-25" d="M144.467,689a35.421,35.421,0,0,0-10.569.9c-12.008,2.895-23.38,12.426-22.175,16.89,1.132,4.193,14.053,6.487,58.859,1.181a21.524,21.524,0,0,0-2.246-18.121,38.527,38.527,0,0,1-23.869-.85Z"/><path class="cls-3" d="M126.172,676.822l-.978,12.822a33.8,33.8,0,0,1-22.8-.941l-.166-11.6a44.732,44.732,0,0,0,23.94-.282Z"/><path class="cls-26" d="M126.172,676.822l-.978,12.822a33.8,33.8,0,0,1-22.8-.941l-.166-11.6a44.732,44.732,0,0,0,23.94-.282Z"/><path class="cls-25" d="M101.324,688.794a35.423,35.423,0,0,0-10.569.9c-12.007,2.9-23.38,12.426-22.175,16.89,1.132,4.193,14.053,6.487,58.859,1.181a21.529,21.529,0,0,0-2.245-18.121,38.531,38.531,0,0,1-23.87-.85Z"/><path class="cls-11" d="M129.373,420.656q1.533-24.387,3.042-48.781c-4.292,23.586-7.91,49.3-10.286,76.929a825.035,825.035,0,0,0-1.9,113.879Q124.908,491.679,129.373,420.656Z"/><path class="cls-11" d="M161.384,117.358a13.1,13.1,0,0,1-17.18,2.6c.118.266,2.384,5.185,7.737,5.89a9.965,9.965,0,0,0,9.713-4.7Z"/><path class="cls-27" d="M162.254,95.473V99.25"/><path class="cls-27" d="M143.665,95.473V99.25"/><path class="cls-28" d="M157.968,109.643a33.083,33.083,0,0,1-12.321-.7,6.173,6.173,0,0,0,12.321.7Z"/><path class="cls-3" d="M210.128,193.192l-38.485,12.869c.761-8.475,1.946-18.5,3.643-30.361,2.2-15.368,5.564-35.972,10.778-60.273l.619-4.933a12.36,12.36,0,0,0-.766-2.211,15.728,15.728,0,0,0-2.126-3.317c-2.358-3.167-3.1-7.369-1.989-9.35.244-.437.436-.514.562-.523,1.026-.07,1.683,4.141,2.724,4.109.235-.007.567-.231.947-1.291.021-.589.06-1.478.138-2.556.434-6.028.623-9.069,2.459-11.11.305-.339,2.731-2.956,5.8-2.506,2.518.37,3.967,2.59,4.49,3.39,1.027,1.572,2.067,4.171,1.286,10.045a41.083,41.083,0,0,1-5.356,15.32l.183,4.8Q203.424,177.745,210.128,193.192Z"/><path class="cls-29" d="M210.128,193.192l-38.485,12.869c.761-8.475,1.946-18.5,3.643-30.361,2.2-15.368,5.564-35.972,10.778-60.273l.619-4.933a12.36,12.36,0,0,0-.766-2.211,15.728,15.728,0,0,0-2.126-3.317c-2.358-3.167-3.1-7.369-1.989-9.35.244-.437.436-.514.562-.523,1.026-.07,1.683,4.141,2.724,4.109.235-.007.567-.231.947-1.291.021-.589.06-1.478.138-2.556.434-6.028.623-9.069,2.459-11.11.305-.339,2.731-2.956,5.8-2.506,2.518.37,3.967,2.59,4.49,3.39,1.027,1.572,2.067,4.171,1.286,10.045a41.083,41.083,0,0,1-5.356,15.32l.183,4.8Q203.424,177.745,210.128,193.192Z"/><path class="cls-11" d="M211.649,201.555c-4.381,15.294-6.719,34.7.051,54.392q.774,2.25,1.659,4.382c-.388,1.433-2.546,8.873-9.266,11.76-6.153,2.644-12.292-.17-14.959-1.408-15.186-7.045-23.08-29.92-18.6-57.176"/><path class="cls-30" d="M211.649,199.555c8.555,36.925,5.2,65-7.556,70.534-6.163,2.673-13.084-.538-14.959-1.408-15.186-7.045-23.08-29.92-18.6-57.176"/><path class="cls-11" d="M212.5,198.33c-.362,2.572-2.552,4.257-4.309,5.443-5.8,3.919-11.925,8.272-20.866,8.619-4.023.156-5.232-.616-10.319-.057-3.9.428-5.318,1.115-6.464.17-2.368-1.951-1.472-9.143,2.048-11.206.912-.535,4.247-.673,10.88-.928l.569-.021c9.666-.375,22.786-10.185,27.1-6.783C212.929,194.981,212.523,198.142,212.5,198.33Z"/><path class="cls-12" d="M212.5,197.33c-.362,2.572-2.552,4.257-4.309,5.443-5.8,3.919-11.925,8.272-20.866,8.619-4.023.156-5.232-.616-10.319-.057-3.9.428-5.318,1.115-6.464.17-2.368-1.951-1.472-9.143,2.048-11.206.912-.535,4.247-.673,10.88-.928l.569-.021c9.666-.375,22.786-10.185,27.1-6.783C212.929,193.981,212.523,197.142,212.5,197.33Z"/><path class="cls-9" d="M162.307,179.125c.183,6.87.672,14.293,1.608,22.179a242.773,242.773,0,0,0,5.541,30.209c-.148-2.37-.207-4.921-.131-7.633.044-1.551.129-3.044.245-4.474-1.1-3.853-2.145-7.907-3.084-12.156A203.493,203.493,0,0,1,162.307,179.125Z"/></g></g></svg>