<svg xmlns="http://www.w3.org/2000/svg" xmlns:xlink="http://www.w3.org/1999/xlink" width="524.099" height="731.488" viewBox="0 0 524.099 731.488"><defs><style>.cls-1{isolation:isolate;}.cls-2{fill:#225e66;}.cls-3{fill:#ffcf9f;}.cls-10,.cls-14,.cls-15,.cls-20,.cls-22,.cls-24,.cls-26,.cls-30,.cls-32,.cls-33,.cls-34,.cls-36,.cls-37,.cls-39,.cls-4,.cls-41,.cls-42,.cls-44,.cls-46,.cls-47,.cls-48,.cls-5,.cls-51,.cls-7{mix-blend-mode:multiply;}.cls-4{fill:url(#linear-gradient);}.cls-5{fill:url(#linear-gradient-2);}.cls-6{fill:#2d5b6f;}.cls-7{fill:url(#linear-gradient-3);}.cls-8{fill:#dfe5e9;}.cls-9{fill:#57cad7;}.cls-10{fill:url(#linear-gradient-4);}.cls-11,.cls-23{opacity:0.35;}.cls-12{fill:#4198a1;}.cls-13{fill:#79d5df;}.cls-14{fill:url(#linear-gradient-5);}.cls-15{fill:url(#linear-gradient-6);}.cls-16{fill:#744100;}.cls-17{fill:#a7acaf;}.cls-18{fill:#5c9b68;}.cls-19{fill:#7bce8a;}.cls-20{fill:url(#linear-gradient-7);}.cls-21{fill:#f7bc55;}.cls-22{fill:url(#linear-gradient-8);}.cls-23,.cls-27,.cls-49{fill:none;stroke:#000;stroke-miterlimit:10;}.cls-24{fill:url(#linear-gradient-9);}.cls-25{fill:#1f0a00;}.cls-26{fill:url(#linear-gradient-10);}.cls-27,.cls-49{stroke-linecap:round;}.cls-27{stroke-width:2px;}.cls-28{fill:#fff;}.cls-29{fill:url(#linear-gradient-11);}.cls-30{fill:url(#linear-gradient-12);}.cls-31{opacity:0.1;}.cls-32{fill:url(#linear-gradient-13);}.cls-33{fill:url(#linear-gradient-14);}.cls-34{fill:url(#linear-gradient-15);}.cls-35{fill:#ffca95;}.cls-36{fill:url(#linear-gradient-16);}.cls-37{fill:url(#linear-gradient-17);}.cls-38{fill:#d58b8c;}.cls-39{fill:url(#linear-gradient-18);}.cls-40{fill:#8b6a30;}.cls-41{fill:url(#linear-gradient-19);}.cls-42{fill:url(#linear-gradient-20);}.cls-43{fill:#a06869;}.cls-44{fill:url(#linear-gradient-21);}.cls-45{fill:#317279;}.cls-46{fill:url(#linear-gradient-22);}.cls-47{fill:url(#linear-gradient-23);}.cls-48{fill:url(#linear-gradient-24);}.cls-49{stroke-width:1.04px;}.cls-50{fill:#00293f;}.cls-51{fill:url(#linear-gradient-25);}.cls-52{fill:#ffbe7d;}</style><linearGradient id="linear-gradient" x1="186.44" y1="327.609" x2="201.093" y2="327.609" gradientTransform="matrix(-1, 0, 0, 1, 515.909, 0)" gradientUnits="userSpaceOnUse"><stop offset="0" stop-color="#ffcf9f"/><stop offset="0.183" stop-color="#ffdbb6"/><stop offset="0.541" stop-color="#ffeede"/><stop offset="0.826" stop-color="#fffbf6"/><stop offset="1" stop-color="#fff"/></linearGradient><linearGradient id="linear-gradient-2" x1="109.876" y1="136.337" x2="139.465" y2="136.337" xlink:href="#linear-gradient"/><linearGradient id="linear-gradient-3" x1="44.709" y1="503.717" x2="217.545" y2="503.717" gradientTransform="matrix(-1, 0, 0, 1, 515.909, 0)" gradientUnits="userSpaceOnUse"><stop offset="0" stop-color="#15b5c6"/><stop offset="0.095" stop-color="#22b9c9"/><stop offset="0.27" stop-color="#43c4d1"/><stop offset="0.504" stop-color="#79d5de"/><stop offset="0.787" stop-color="#c3ecf0"/><stop offset="1" stop-color="#fff"/></linearGradient><linearGradient id="linear-gradient-4" x1="15.868" y1="244.925" x2="153.498" y2="244.925" xlink:href="#linear-gradient-3"/><linearGradient id="linear-gradient-5" x1="95.797" y1="141.699" x2="130.779" y2="141.699" xlink:href="#linear-gradient-3"/><linearGradient id="linear-gradient-6" x1="101.352" y1="97.425" x2="143.135" y2="97.425" xlink:href="#linear-gradient"/><linearGradient id="linear-gradient-7" x1="42.935" y1="367.873" x2="131.157" y2="367.873" xlink:href="#linear-gradient-3"/><linearGradient id="linear-gradient-8" x1="45.395" y1="337.253" x2="141.15" y2="337.253" gradientTransform="matrix(-1, 0, 0, 1, 515.909, 0)" gradientUnits="userSpaceOnUse"><stop offset="0" stop-color="#f7bc55"/><stop offset="0.123" stop-color="#f8c162"/><stop offset="0.349" stop-color="#f9ce83"/><stop offset="0.651" stop-color="#fce3b9"/><stop offset="1" stop-color="#fff"/></linearGradient><linearGradient id="linear-gradient-9" x1="122.858" y1="690.677" x2="147.226" y2="690.677" xlink:href="#linear-gradient"/><linearGradient id="linear-gradient-10" x1="51.526" y1="758.294" x2="75.894" y2="758.294" gradientTransform="matrix(-0.614, 0.789, 0.789, 0.614, -90.896, 126.488)" xlink:href="#linear-gradient"/><linearGradient id="linear-gradient-11" x1="82.964" y1="209.241" x2="245.325" y2="209.241" gradientTransform="matrix(-1, 0, 0, 1, 515.909, 0)" gradientUnits="userSpaceOnUse"><stop offset="0" stop-color="#2fadbf"/><stop offset="1" stop-color="#57cad7"/></linearGradient><linearGradient id="linear-gradient-12" x1="219.348" y1="135.114" x2="258.631" y2="135.114" gradientTransform="matrix(-1, 0, 0, 1, 515.909, 0)" gradientUnits="userSpaceOnUse"><stop offset="0" stop-color="#ffcf9f"/><stop offset="0.031" stop-color="#ffd1a3"/><stop offset="0.475" stop-color="#ffead4"/><stop offset="0.812" stop-color="#fff9f3"/><stop offset="1" stop-color="#fff"/></linearGradient><linearGradient id="linear-gradient-13" x1="151.329" y1="541.77" x2="160.003" y2="541.77" xlink:href="#linear-gradient-3"/><linearGradient id="linear-gradient-14" x1="86.612" y1="230.712" x2="137.923" y2="230.712" xlink:href="#linear-gradient-3"/><linearGradient id="linear-gradient-15" x1="253.536" y1="90.443" x2="256.178" y2="90.443" xlink:href="#linear-gradient-12"/><linearGradient id="linear-gradient-16" x1="364.573" y1="614.154" x2="413.462" y2="614.154" gradientTransform="matrix(-1, 0, 0, 1, 515.909, 0)" gradientUnits="userSpaceOnUse"><stop offset="0" stop-color="#fff"/><stop offset="0.175" stop-color="#fffcf9"/><stop offset="0.402" stop-color="#fff4e9"/><stop offset="0.659" stop-color="#ffe7ce"/><stop offset="0.935" stop-color="#ffd4a9"/><stop offset="1" stop-color="#ffcf9f"/></linearGradient><linearGradient id="linear-gradient-17" x1="359.747" y1="630.444" x2="444.379" y2="591.265" xlink:href="#linear-gradient-16"/><linearGradient id="linear-gradient-18" x1="431.196" y1="365.159" x2="450.747" y2="365.159" gradientTransform="matrix(-1, 0, 0, 1, 515.909, 0)" gradientUnits="userSpaceOnUse"><stop offset="0" stop-color="#d58b8c"/><stop offset="0.155" stop-color="#d79192"/><stop offset="0.358" stop-color="#dda1a2"/><stop offset="0.586" stop-color="#e7bcbd"/><stop offset="0.832" stop-color="#f4e1e1"/><stop offset="1" stop-color="#fff"/></linearGradient><linearGradient id="linear-gradient-19" x1="253.354" y1="247.569" x2="440.856" y2="247.569" gradientTransform="matrix(-1, 0, 0, 1, 515.909, 0)" gradientUnits="userSpaceOnUse"><stop offset="0" stop-color="#fff"/><stop offset="0.19" stop-color="#fefbfb"/><stop offset="0.375" stop-color="#f9eff0"/><stop offset="0.558" stop-color="#f2dcdc"/><stop offset="0.74" stop-color="#e8c0c1"/><stop offset="0.92" stop-color="#dc9d9e"/><stop offset="1" stop-color="#d58b8c"/></linearGradient><linearGradient id="linear-gradient-20" x1="337.989" y1="452.011" x2="500.041" y2="452.011" gradientTransform="matrix(-1, 0, 0, 1, 515.909, 0)" gradientUnits="userSpaceOnUse"><stop offset="0" stop-color="#fff"/><stop offset="0.066" stop-color="#fefcf6"/><stop offset="0.499" stop-color="#fbe9c1"/><stop offset="0.823" stop-color="#f9dda0"/><stop offset="1" stop-color="#f8d893"/></linearGradient><linearGradient id="linear-gradient-21" x1="392.905" y1="180.699" x2="421.139" y2="180.699" gradientTransform="matrix(-1, 0, 0, 1, 515.909, 0)" gradientUnits="userSpaceOnUse"><stop offset="0" stop-color="#fff"/><stop offset="0.121" stop-color="#fff8f0"/><stop offset="0.515" stop-color="#ffe2c4"/><stop offset="0.821" stop-color="#ffd4a9"/><stop offset="1" stop-color="#ffcf9f"/></linearGradient><linearGradient id="linear-gradient-22" x1="379.198" y1="164.52" x2="410.844" y2="164.52" gradientTransform="matrix(-1, 0, 0, 1, 515.909, 0)" gradientUnits="userSpaceOnUse"><stop offset="0" stop-color="#fff"/><stop offset="0.188" stop-color="#fff9f3"/><stop offset="0.525" stop-color="#ffead4"/><stop offset="0.969" stop-color="#ffd1a3"/><stop offset="1" stop-color="#ffcf9f"/></linearGradient><linearGradient id="linear-gradient-23" x1="442.738" y1="266.115" x2="459.805" y2="266.115" gradientTransform="matrix(-1, 0, 0, 1, 515.909, 0)" gradientUnits="userSpaceOnUse"><stop offset="0" stop-color="#fff"/><stop offset="0.158" stop-color="#fbfefe"/><stop offset="0.313" stop-color="#effafb"/><stop offset="0.466" stop-color="#dcf4f7"/><stop offset="0.618" stop-color="#c0ebf0"/><stop offset="0.769" stop-color="#9de0e8"/><stop offset="0.918" stop-color="#72d2dd"/><stop offset="1" stop-color="#57cad7"/></linearGradient><linearGradient id="linear-gradient-24" x1="379.434" y1="189.954" x2="486.39" y2="189.954" gradientTransform="matrix(-1, 0, 0, 1, 515.909, 0)" gradientUnits="userSpaceOnUse"><stop offset="0" stop-color="#fff"/><stop offset="0.138" stop-color="#fbfcfc"/><stop offset="0.274" stop-color="#eff2f3"/><stop offset="0.407" stop-color="#dce1e4"/><stop offset="0.54" stop-color="#c0cace"/><stop offset="0.673" stop-color="#9dacb2"/><stop offset="0.805" stop-color="#718790"/><stop offset="0.935" stop-color="#3e5c69"/><stop offset="1" stop-color="#224453"/></linearGradient><linearGradient id="linear-gradient-25" x1="256.911" y1="88.42" x2="266.847" y2="88.42" xlink:href="#linear-gradient-22"/></defs><g class="cls-1"><g id="Layer_1" data-name="Layer 1"><path class="cls-2" d="M412.612,128.732a60.411,60.411,0,0,0-31.973-1.379,7.375,7.375,0,0,0-3.062,3.308,7.2,7.2,0,0,0-.643,3,36.991,36.991,0,0,0,12,3.857c4.317.6,13.2,1.829,19.627-3.635A16.969,16.969,0,0,0,412.612,128.732Z"/><path class="cls-3" d="M316.093,277.465a378.7,378.7,0,0,0,5.1,100.288l8.276-12.021L327.737,278.5Z"/><path class="cls-4" d="M316.093,277.465a378.7,378.7,0,0,0,5.1,100.288l8.276-12.021L327.737,278.5Z"/><path class="cls-3" d="M406.034,135.641a18.358,18.358,0,0,1-3.064-5.141,19.1,19.1,0,0,1-.8-10.928l-16.714.16a14.453,14.453,0,0,1-2.893,9.643,14.011,14.011,0,0,1-5.625,4.286c-1.32,8.32,0,16.3,4.286,18.643C386.685,155.294,398.436,149.914,406.034,135.641Z"/><path class="cls-5" d="M406.034,135.641a18.358,18.358,0,0,1-3.064-5.141,19.1,19.1,0,0,1-.8-10.928l-16.714.16a14.453,14.453,0,0,1-2.893,9.643,14.011,14.011,0,0,1-5.625,4.286c-1.32,8.32,0,16.3,4.286,18.643C386.685,155.294,398.436,149.914,406.034,135.641Z"/><path class="cls-6" d="M451.727,389.005a138.827,138.827,0,0,1-2.793,29.977,137.227,137.227,0,0,1-8.116,26.116c-8.1,19.477-12.823,42.224-23.468,87.245-2.323,9.825-4.129,17.916-5.3,23.246L471.2,627.082a36.6,36.6,0,0,1-18,20.862l-48.368-42.772q-.628,2.451-1.216,4.942a267.732,267.732,0,0,0-6.751,73.083,44.706,44.706,0,0,1-30.107-.75,1751.857,1751.857,0,0,1-.75-202.715s6.574-54.552,3.857-54.964c-1.5-.228-4.467,19.14-16.31,47.25-2.216,5.26-4.243,9.64-5.785,12.857l16.813,26.361L363.436,572.3c-16.029-10.253-58.139-40.237-64.527-88.715-.631-4.793-2.028-18.229,5.143-50.142,5.883-26.177,17.56-64.913,42.958-109.593A71.782,71.782,0,0,1,367,322.089C417,324.8,447.313,380.6,451.727,389.005Z"/><path class="cls-7" d="M451.727,389.005a138.827,138.827,0,0,1-2.793,29.977,137.227,137.227,0,0,1-8.116,26.116c-8.1,19.477-12.823,42.224-23.468,87.245-2.323,9.825-4.129,17.916-5.3,23.246L471.2,627.082a36.6,36.6,0,0,1-18,20.862l-48.368-42.772q-.628,2.451-1.216,4.942a267.732,267.732,0,0,0-6.751,73.083,44.706,44.706,0,0,1-30.107-.75,1751.857,1751.857,0,0,1-.75-202.715s6.574-54.552,3.857-54.964c-1.5-.228-4.467,19.14-16.31,47.25-2.216,5.26-4.243,9.64-5.785,12.857l16.813,26.361L363.436,572.3c-16.029-10.253-58.139-40.237-64.527-88.715-.631-4.793-2.028-18.229,5.143-50.142,5.883-26.177,17.56-64.913,42.958-109.593A71.782,71.782,0,0,1,367,322.089C417,324.8,447.313,380.6,451.727,389.005Z"/><path class="cls-8" d="M387.905,152.627a7.477,7.477,0,0,1-9.249-2.9c-14.3,20.54-36.13,58.1-43.186,109.5a246.887,246.887,0,0,0,0,66.857c9.88-3.35,16.64-2.387,21.053-.8,5.307,1.9,6.788,4.551,11.893,5.786,0,0,8.242,1.992,19.286-4.018,16.942-9.221,42.34-58.66,30.482-113.465C415.421,200.822,408.4,177.439,387.905,152.627Z"/><path class="cls-9" d="M420.112,139.018a145.233,145.233,0,0,1,24.643,45.857c13.478,42.25-4.381,56.946,12,87.857,9.89,18.663,22.188,24.228,35.572,54.857a186.975,186.975,0,0,1,7.714,21c-10.2-9.426-19.234-12.3-25.286-13.285-24.528-3.984-36.935,17.145-69.428,15.428-15.433-.815-21.408-6.045-23.143-7.714-8.6-8.267-10.033-22.322-10.286-25.714-.532-7.127.9-10.9-1.286-18.429a42.259,42.259,0,0,0-5.571-11.571c-10.156-16.815,12.571-36.381,9.857-69.857-1.134-13.994-6.382-26.309,1.048-35.413,2.225-2.726,4.452-3.774,7.095-7.659,5.252-7.72,5.434-16.773,4.714-23.357a6.751,6.751,0,0,1-.053-4.286,7.108,7.108,0,0,1,1.768-2.571C391.645,142.161,403.605,140.1,420.112,139.018Z"/><path class="cls-10" d="M420.112,139.018a145.233,145.233,0,0,1,24.643,45.857c13.478,42.25-4.381,56.946,12,87.857,9.89,18.663,22.188,24.228,35.572,54.857a186.975,186.975,0,0,1,7.714,21c-10.2-9.426-19.234-12.3-25.286-13.285-24.528-3.984-36.935,17.145-69.428,15.428-15.433-.815-21.408-6.045-23.143-7.714-8.6-8.267-10.033-22.322-10.286-25.714-.532-7.127.9-10.9-1.286-18.429a42.259,42.259,0,0,0-5.571-11.571c-10.156-16.815,12.571-36.381,9.857-69.857-1.134-13.994-6.382-26.309,1.048-35.413,2.225-2.726,4.452-3.774,7.095-7.659,5.252-7.72,5.434-16.773,4.714-23.357a6.751,6.751,0,0,1-.053-4.286,7.108,7.108,0,0,1,1.768-2.571C391.645,142.161,403.605,140.1,420.112,139.018Z"/><path class="cls-11" d="M374.184,140.3a45.731,45.731,0,0,0-6.391,3.066,51.839,51.839,0,0,0-5.715,3.942c-17.795,14.37-28.876,57.84-28.876,57.84-4.641,18.2-9.3,39.1-13.34,62.437.256.278,3.544,3.751,7.715,2.893a7.205,7.205,0,0,0,3.214-1.607c2.251,14.538.352,25.229-1.929,32.464-2.891,9.176-7.571,16.52-10.928,31.822-1.029,4.69-1.6,8.615-1.929,11.25a82.813,82.813,0,0,1,13.5.964c6.984,1.082,9.726,2.437,13.179.964,4.409-1.88,6.24-6.777,7.071-9,3.068-8.2.937-15.792-.321-21.214,0,0-2.382-10.284-3.536-32.464-1.456-28,9.29-53.386,11.643-58.714,2.586-5.857,5.513-11.211,7.629-20.449,2.429-10.6,1.4-15.893,2.442-24.337.965-7.849,3.758-18.816,12.054-31.661Z"/><path class="cls-9" d="M370.184,140.3a45.731,45.731,0,0,0-6.391,3.066,51.839,51.839,0,0,0-5.715,3.942c-17.795,14.37-28.876,57.84-28.876,57.84-4.641,18.2-9.3,39.1-13.34,62.437.256.278,3.544,3.751,7.715,2.893a7.205,7.205,0,0,0,3.214-1.607c2.251,14.538.352,25.229-1.929,32.464-2.891,9.176-7.571,16.52-10.928,31.822-1.029,4.69-1.6,8.615-1.929,11.25a82.813,82.813,0,0,1,13.5.964c6.984,1.082,9.726,2.437,13.179.964,4.409-1.88,6.24-6.777,7.071-9,3.068-8.2.937-15.792-.321-21.214,0,0-2.351-10.133-3.536-32.464-.35-6.6-1.934-36.447,13.5-59.786,3.348-5.062,8.064-10.676,9.964-20.25,1.518-7.642-.7-8.054.322-19.178,1.413-15.456,6.631-25,7.821-27.108a57.5,57.5,0,0,1,6.161-8.839Z"/><path class="cls-12" d="M315.862,267.589a6.045,6.045,0,0,0-2.892,2.733,5.492,5.492,0,0,0-.483,4.017c.785,2.351,3.591,3.2,5.786,3.858a18.932,18.932,0,0,0,9.464.3c-.083-2-.241-4.1-.5-6.305q-.2-1.71-.45-3.319a7.553,7.553,0,0,1-10.929-1.286Z"/><path class="cls-11" d="M326.791,268.875a65.906,65.906,0,0,1,1.125-24.75c.568-2.354,1.069-3.851,1.688-5.786,4.863-15.222,6.119-23.668,9.08-34.392a182.693,182.693,0,0,1,8.675-24.533c1.569-3.58,2.26-5.036,2.253-5.039a167.481,167.481,0,0,0-14.625,36.161c-1.634,6.016-1.765,8.014-4.178,16.312-2.826,9.719-3.958,11.485-5.084,17.985a108.711,108.711,0,0,0-1.4,14.881c-.149,4.179-.074,7.723.043,10.372Z"/><path class="cls-13" d="M385.13,143.357l5.972,11.308a40.067,40.067,0,0,0,22.957-9.058,36.706,36.706,0,0,0,6.053-6.589,11.44,11.44,0,0,0-3.642-8.2,10.284,10.284,0,0,0-3.858-2.09,30.78,30.78,0,0,1-5.571,6.536C398.834,142.52,388.979,143.276,385.13,143.357Z"/><path class="cls-14" d="M385.13,143.357l5.972,11.308a40.067,40.067,0,0,0,22.957-9.058,36.706,36.706,0,0,0,6.053-6.589,11.44,11.44,0,0,0-3.642-8.2,10.284,10.284,0,0,0-3.858-2.09,30.78,30.78,0,0,1-5.571,6.536C398.834,142.52,388.979,143.276,385.13,143.357Z"/><path class="cls-13" d="M380.639,127.353a15.559,15.559,0,0,0-7.241,6.2c-3,5.045-2.689,11.664.643,17.25l8.571-7.072a9.792,9.792,0,0,1-4.5-4.5C376.411,135.549,377.4,130.845,380.639,127.353Z"/><path class="cls-3" d="M413.185,100.822a33.759,33.759,0,0,1-4.339,10.607c-1.566,2.491-9.248,14.711-18.964,13.5-8.465-1.056-12.94-11.617-14.135-14.437A30.79,30.79,0,0,1,373.489,96c-.323-1.223-2.662-10.711,3.375-18.482,5.992-7.713,16.915-9.461,24.911-5.946C411.776,75.968,417.3,88.641,413.185,100.822Z"/><path class="cls-15" d="M413.185,100.822a33.759,33.759,0,0,1-4.339,10.607c-1.566,2.491-9.248,14.711-18.964,13.5-8.465-1.056-12.94-11.617-14.135-14.437A30.79,30.79,0,0,1,373.489,96c-.323-1.223-2.662-10.711,3.375-18.482,5.992-7.713,16.915-9.461,24.911-5.946C411.776,75.968,417.3,88.641,413.185,100.822Z"/><path class="cls-16" d="M400.409,122.339c3.546,1.35,12.206-13,14.092-16.129a108.952,108.952,0,0,0,5.837-11.063s4.47-10.349.656-19.235a5.164,5.164,0,0,0-3.272-3.318,5.841,5.841,0,0,0-3.213.209,9.514,9.514,0,0,0-2.82-5.975,15.017,15.017,0,0,0-9.909-4.147c-3.044,0-4.053,1.089-7.881,2.372a43.124,43.124,0,0,1-17.274,1.775,40.576,40.576,0,0,1-14.221-3.95,23.823,23.823,0,0,0-1.278,9.519,15.171,15.171,0,0,0,.2,1.61,36.376,36.376,0,0,0,3.247,9.321A28.7,28.7,0,0,0,369.42,89.7c-.146,2.273.075,4.988,1.841,6.4,3.761,3.014,10.7-2.935,15.031.152,3.113,2.22,1.543,7.414,5.1,8.883,1.637.676,3.079.061,4.466,1.345a5.494,5.494,0,0,1,1.462,3.611C397.9,115.429,398.543,121.629,400.409,122.339Z"/><path class="cls-17" d="M354,250.756A184.223,184.223,0,0,0,378.551,330.6q1.181,6.908,2.36,13.814a111.177,111.177,0,0,1-9.012-13.024c-9.079-15.352-12.279-29.248-15.644-44.4a259.222,259.222,0,0,1-4.714-28.928l-.129-6.945Z"/><path class="cls-17" d="M353.494,241.7c-.732-4.6-1.644-11.171-2.274-19.107-1.165-14.659-2.324-29.242,1.125-45.964a111.863,111.863,0,0,1,13.378-34.311l-3.274,1.884q-.933,1.554-1.823,3.154c-10.133,18.242-19.993,48.6-10.478,95.809Z"/><path class="cls-17" d="M454.612,319.875A177.418,177.418,0,0,0,450.08,225.2q.024-5.373.049-10.745c2.074,5.349,4,11.007,5.716,16.974,10.034,34.934,8.873,67.086,4.982,91.66Z"/><path class="cls-11" d="M384.112,347.875a15.408,15.408,0,0,1,4.628,3.805c7.42-3.3,24.04-2.946,39.944-2.519,16.937.455,31.145.92,41.571,1.286,1.959,11.769-1.552,22.775-9.428,28.142a20.807,20.807,0,0,1-9.643,3.429,108.359,108.359,0,0,1,.548,10.927c0,2.108-.063,4.136-.173,6.076-3.253.3-6.9.727-10.875,1.354-6.658,1.051-33.231,5.987-41.786,6.429-2.172.112-5.616.24-8.357-1.929a4.643,4.643,0,0,1-.953-1c-2.363.438-5.253-4.178-8.047-8.64a35.044,35.044,0,0,1-5.143-15.214q-.72-16.876-1.442-33.754A16.568,16.568,0,0,1,384.112,347.875Z"/><path class="cls-18" d="M389.588,393.872c-2.363.438-5.253-4.178-8.047-8.64a35.044,35.044,0,0,1-5.143-15.214q-.72-16.876-1.442-33.754a16.568,16.568,0,0,1,9.156,1.611C401.651,347.066,396.539,392.582,389.588,393.872Z"/><path class="cls-19" d="M470.255,340.447a102.857,102.857,0,0,1,2.357,31.928c-.582,6.67-1.489,8.908-2.785,10.714-4.644,6.471-12.271,4.585-29.143,7.286-12,1.92-24.914,5.558-41.786,6.429-2.172.112-5.616.24-8.357-1.929-1.13-.895-3.4-3.173-4.5-18-.584-7.84.039-7.349-.643-14.786a110.965,110.965,0,0,1-.643-11.142,32.987,32.987,0,0,1,.181-5.744c2.223-7.014,23.568-6.584,43.748-6.042C445.621,339.616,459.829,340.081,470.255,340.447Z"/><path class="cls-20" d="M470.255,340.447a102.857,102.857,0,0,1,2.357,31.928c-.582,6.67-1.489,8.908-2.785,10.714-4.644,6.471-12.271,4.585-29.143,7.286-12,1.92-24.914,5.558-41.786,6.429-2.172.112-5.616.24-8.357-1.929-1.13-.895-3.4-3.173-4.5-18-.584-7.84.039-7.349-.643-14.786a110.965,110.965,0,0,1-.643-11.142,32.987,32.987,0,0,1,.181-5.744c2.223-7.014,23.568-6.584,43.748-6.042C445.621,339.616,459.829,340.081,470.255,340.447Z"/><path class="cls-11" d="M470.255,342.447c1.148-4.642-1.787-9.361-3.428-12-5.36-8.619-14.69-11.033-18.429-12-2.4-.621-5.63-1.21-25.714.642-9.394.867-14.217,1.305-20.357,2.358-17.277,2.962-22.691,6.421-25.554,10.5-.79,1.125-2.612,3.8-1.817,6.317.815,2.583,3.706,2.881,6.367,4.991,4.971,3.943,3.4,9.665,5.789,13.549,1.642,2.67,6.771,6.708,42.858.857C452.436,354.018,468.064,351.311,470.255,342.447Z"/><path class="cls-21" d="M470.255,340.447c1.148-4.642-1.787-9.361-3.428-12-5.36-8.619-14.69-11.033-18.429-12-2.4-.621-5.63-1.21-25.714.642-9.394.867-14.217,1.305-20.357,2.358-17.277,2.962-22.691,6.421-25.554,10.5-.79,1.125-2.612,3.8-1.817,6.317.815,2.583,3.706,2.881,6.367,4.991,4.971,3.943,3.4,9.665,5.789,13.549,1.642,2.67,6.771,6.708,42.858.857C452.436,352.018,468.064,349.311,470.255,340.447Z"/><path class="cls-22" d="M470.255,340.447c1.148-4.642-1.787-9.361-3.428-12-5.36-8.619-14.69-11.033-18.429-12-2.4-.621-5.63-1.21-25.714.642-9.394.867-14.217,1.305-20.357,2.358-17.277,2.962-22.691,6.421-25.554,10.5-.79,1.125-2.612,3.8-1.817,6.317.815,2.583,3.706,2.881,6.367,4.991,4.971,3.943,3.4,9.665,5.789,13.549,1.642,2.67,6.771,6.708,42.858.857C452.436,352.018,468.064,349.311,470.255,340.447Z"/><path class="cls-23" d="M465.755,360.161c1.179,1.489,1.447,3.642,1.715,5.786.148,1.19.856,6.859-1.5,10.928-.891,1.538-3.492,5.045-21.858,7.714-7.33,1.066-7.674.618-15,1.5-17.934,2.162-24.651,5.908-28.025,2.224-1.316-1.437-1.464-4.2-1.76-9.724-.308-5.752-.48-8.962.643-11.357,3.651-7.787,18.331-1.294,45-6.857C452.878,358.726,462.385,355.9,465.755,360.161Z"/><path class="cls-3" d="M393.052,684.266q-.827,6.377-1.654,12.752a33.795,33.795,0,0,1-22.714-2.143l.446-11.591a44.744,44.744,0,0,0,23.922.982Z"/><path class="cls-24" d="M393.052,684.266q-.827,6.377-1.654,12.752a33.795,33.795,0,0,1-22.714-2.143l.446-11.591a44.744,44.744,0,0,0,23.922.982Z"/><path class="cls-25" d="M367.607,694.91a35.409,35.409,0,0,0-10.6.34c-12.143,2.258-24,11.175-23.035,15.7.908,4.246,13.69,7.219,58.714,4.285a21.523,21.523,0,0,0-1.286-18.214,38.53,38.53,0,0,1-23.791-2.108Z"/><path class="cls-3" d="M470.84,628.917l9.048,9.137a33.789,33.789,0,0,1-15.641,16.61l-8.874-7.471a44.717,44.717,0,0,0,15.467-18.276Z"/><path class="cls-26" d="M470.84,628.917l9.048,9.137a33.789,33.789,0,0,1-15.641,16.61l-8.874-7.471a44.717,44.717,0,0,0,15.467-18.276Z"/><path class="cls-25" d="M463.613,655.535a35.436,35.436,0,0,0-6.242,8.576c-5.677,10.97-5.922,25.807-1.76,27.82,3.909,1.89,14.106-6.371,39.441-43.705a21.523,21.523,0,0,0-15.164-10.172,38.523,38.523,0,0,1-16.275,17.481Z"/><path class="cls-11" d="M369.714,426.513c.888-5.778,1.639-11.9,2.184-18.352a271.183,271.183,0,0,0,.857-30.429q-2.139,16.992-4.846,34.715-3,19.593-6.428,38.142Z"/><path class="cls-11" d="M393.371,124.808a12.777,12.777,0,0,1-8.826-1.993,5.28,5.28,0,0,0,1.9,3.6c2.408,1.8,7.069.913,10.773-2.978A11.669,11.669,0,0,1,393.371,124.808Z"/><path class="cls-27" d="M376.257,102.817v3.777"/><path class="cls-27" d="M385.257,102.817v3.777"/><path class="cls-28" d="M379.757,116.062q1.4-.195,2.885-.355,2.175-.231,4.206-.348c.362,2.809-1.8,4.948-3.718,4.85C381.487,120.126,379.8,118.392,379.757,116.062Z"/><path class="cls-29" d="M270.585,201.068c5.5,14.843,13.68,29.743,26.717,39.2,31.029,22.507,86.824,12.195,135.643-26.357l-29.893-47.464a110.255,110.255,0,0,1-45,27.857c-14.28,4.52-33.934,10.741-51.428,1.285a37.337,37.337,0,0,1-10.063-7.922Z"/><path class="cls-3" d="M296.561,187.667a169.259,169.259,0,0,1-28.351-85.333,59.754,59.754,0,0,0,1.128-12.28c-.133-10.9-3.282-21.049-4.714-20.893-1.213.132-.3,7.549-2.679,20.143a108.244,108.244,0,0,1-3.536,13.714,222.472,222.472,0,0,0,3.215,66.214,220.115,220.115,0,0,0,8.961,31.836Z"/><path class="cls-30" d="M296.561,187.667a169.259,169.259,0,0,1-28.351-85.333,59.754,59.754,0,0,0,1.128-12.28c-.133-10.9-3.282-21.049-4.714-20.893-1.213.132-.3,7.549-2.679,20.143a108.244,108.244,0,0,1-3.536,13.714,222.472,222.472,0,0,0,3.215,66.214,220.115,220.115,0,0,0,8.961,31.836Z"/><path class="cls-11" d="M347.767,484.875q-1.768,2.893-3.536,5.786l20.349,20.575Z"/><path class="cls-31" d="M404.829,605.172l3.432-23.555q1.9-13.014,3.791-26.028,18.663,21.565,37.5,44.572,11.07,13.535,21.649,26.921a36.6,36.6,0,0,1-18,20.862Z"/><path class="cls-32" d="M364.58,511.236q-.658,18.175-.948,36.967-.185,12.177-.2,24.1l-7.53-5.063Q360.243,539.239,364.58,511.236Z"/><path class="cls-33" d="M429.3,216.724A186.346,186.346,0,0,1,377.986,244.7,75.889,75.889,0,0,0,429.3,216.724Z"/><path class="cls-3" d="M262.373,86.892q-1.075-4.506-1.714-4.445-1.183.113-.856,15.994c.634-2.261,1.23-4.666,1.759-7.21Q262.025,89.005,262.373,86.892Z"/><path class="cls-34" d="M262.373,86.892q-1.075-4.506-1.714-4.445-1.183.113-.856,15.994c.634-2.261,1.23-4.666,1.759-7.21Q262.025,89.005,262.373,86.892Z"/><path class="cls-12" d="M272.151,203.277c.926-2.694,4.558-3.009,9.553-5.778a33.177,33.177,0,0,0,3.255-2.061l0,0c5.6-3.629,8.461-5.431,11.354-4.816,1.623.345,3.171,1.288,4.622.486a4,4,0,0,0,1.735-4.052c-.519-2.6-4.2-4.012-6.634-4.39-6.394-1-13.771,3.686-17.675,8.235-1.8,2.1-3.053,4.39-6.026,5.366-1.469.483-3.055.419-4.428,1.784a3.918,3.918,0,0,0-1.33,2.978c.221,2.067,2.84,3.07,3.322,3.241a5.878,5.878,0,0,0,2.045.333A3.883,3.883,0,0,1,272.151,203.277Z"/><path class="cls-35" d="M102.448,512.781l37.144,4.727q-4.71,93.45-9.422,186.9,21.665,6.946,21.154,9.553-.654,3.342-37.759-.455Q108.006,613.145,102.448,512.781Z"/><path class="cls-36" d="M102.448,512.781l37.144,4.727q-4.71,93.45-9.422,186.9,21.665,6.946,21.154,9.553-.654,3.342-37.759-.455Q108.006,613.145,102.448,512.781Z"/><path class="cls-3" d="M162.925,518.8q-5.572,16.377-11.146,32.755-31.731,68.694-63.463,137.389a32.7,32.7,0,0,0,4.55,16.378c3.7,6.026,7.952,7.964,7.279,9.326-1.109,2.239-14.364.5-23.316-7.962a30.732,30.732,0,0,1-7.165-10.463l46.79-142.874-1.667-37.208Z"/><path class="cls-37" d="M162.925,518.8q-5.572,16.377-11.146,32.755-31.731,68.694-63.463,137.389a32.7,32.7,0,0,0,4.55,16.378c3.7,6.026,7.952,7.964,7.279,9.326-1.109,2.239-14.364.5-23.316-7.962a30.732,30.732,0,0,1-7.165-10.463l46.79-142.874-1.667-37.208Z"/><path class="cls-38" d="M69.782,343.239a77.4,77.4,0,0,1-.83,7.905c-1.355,8.622-3.088,10.106-3.61,15.251-.176,1.735-1.358,13.38,5.8,18.424,3.873,2.73,8.555,2.376,10.878,2.013l2.692-2.886-5.256-36.824Z"/><path class="cls-39" d="M69.782,343.239a77.4,77.4,0,0,1-.83,7.905c-1.355,8.622-3.088,10.106-3.61,15.251-.176,1.735-1.358,13.38,5.8,18.424,3.873,2.73,8.555,2.376,10.878,2.013l2.692-2.886-5.256-36.824Z"/><path class="cls-40" d="M15.868,502.078a80.654,80.654,0,0,0,13.535,8.3c30.849,14.941,63.019,5.9,75.8,1.479a110.232,110.232,0,0,0-89.339-9.782Z"/><path class="cls-38" d="M262.555,109.359l-13.648-3.412c-11.774,25-20.456,45.641-26.272,60.051-9.32,23.091-11.112,29.757-19.449,35.484-14.632,10.052-39.582,10.447-57.776,3.867-6.976-2.523-16.642-7.4-30.219-6.452a36.224,36.224,0,0,0-13,3.04c-11.288,5.37-16.164,16.7-18.2,21.609-11.47,27.7,7.07,39.955,0,78.249-2.618,14.182-8.252,29.239-5.345,42.479.716,3.262,2.387,8.4.8,14.842-1.575,6.376-4.913,8.214-4.322,12.965.762,6.122,7.136,9.778,7.962,10.236,6.455,3.586,13.643,1.941,16.605,1.365,25.513-4.958,36.551,10.389,64.145,3.867,13.115-3.1,16.689-8.2,18.2-11.146,3.642-7.111,1.624-16.645-2.5-22.746-4.452-6.584-9.129-5.875-15.013-13.648a39.2,39.2,0,0,1-6.369-13.648c-3.084-10.472-4.883-32.411,4.436-50.156,16.428-31.284,55.927-19.365,76.769-53.569,3.663-6.011,5.753-15.007,9.782-32.755A697.594,697.594,0,0,0,262.555,109.359Z"/><path class="cls-41" d="M262.555,109.359l-13.648-3.412c-11.774,25-20.456,45.641-26.272,60.051-9.32,23.091-11.112,29.757-19.449,35.484-14.632,10.052-39.582,10.447-57.776,3.867-6.976-2.523-16.642-7.4-30.219-6.452a36.224,36.224,0,0,0-13,3.04c-11.288,5.37-16.164,16.7-18.2,21.609-11.47,27.7,7.07,39.955,0,78.249-2.618,14.182-8.252,29.239-5.345,42.479.716,3.262,2.387,8.4.8,14.842-1.575,6.376-4.913,8.214-4.322,12.965.762,6.122,7.136,9.778,7.962,10.236,6.455,3.586,13.643,1.941,16.605,1.365,25.513-4.958,36.551,10.389,64.145,3.867,13.115-3.1,16.689-8.2,18.2-11.146,3.642-7.111,1.624-16.645-2.5-22.746-4.452-6.584-9.129-5.875-15.013-13.648a39.2,39.2,0,0,1-6.369-13.648c-3.084-10.472-4.883-32.411,4.436-50.156,16.428-31.284,55.927-19.365,76.769-53.569,3.663-6.011,5.753-15.007,9.782-32.755A697.594,697.594,0,0,0,262.555,109.359Z"/><path class="cls-21" d="M170.213,385.637a203.925,203.925,0,0,1,7.042,38.989c3.289,40.472-6.276,73.636-14.33,94.171a86.119,86.119,0,0,1-29.343,2.047c-23.163-2.452-27.586-12.916-46.4-12.966-19.318-.051-27.853,14.238-39.579,8.189-5.1-2.629-6.151-6.513-13.989-10.236a40.558,40.558,0,0,0-17.743-3.753c1.744-7.945,5.455-18.693,14.331-27.3,12.709-12.319,22.559-7.2,31.049-17.4,11.588-13.918-1.832-30.6,10.008-54.592a73.415,73.415,0,0,1,14.057-19.448,24.808,24.808,0,0,0,4.512,1.015c5.168.665,8.395-.605,13.622-1.274a57.062,57.062,0,0,1,10.147-.262c9.07.307,10.944,2.517,22.611,4.651,5.62,1.028,10.749,1.967,17.4,1.615A56.509,56.509,0,0,0,170.213,385.637Z"/><path class="cls-42" d="M170.213,385.637a203.925,203.925,0,0,1,7.042,38.989c3.289,40.472-6.276,73.636-14.33,94.171a86.119,86.119,0,0,1-29.343,2.047c-23.163-2.452-27.586-12.916-46.4-12.966-19.318-.051-27.853,14.238-39.579,8.189-5.1-2.629-6.151-6.513-13.989-10.236a40.558,40.558,0,0,0-17.743-3.753c1.744-7.945,5.455-18.693,14.331-27.3,12.709-12.319,22.559-7.2,31.049-17.4,11.588-13.918-1.832-30.6,10.008-54.592a73.415,73.415,0,0,1,14.057-19.448,24.808,24.808,0,0,0,4.512,1.015c5.168.665,8.395-.605,13.622-1.274a57.062,57.062,0,0,1,10.147-.262c9.07.307,10.944,2.517,22.611,4.651,5.62,1.028,10.749,1.967,17.4,1.615A56.509,56.509,0,0,0,170.213,385.637Z"/><path class="cls-43" d="M129.171,199.918a25.228,25.228,0,0,0-.963-5.516c-.709-2.425-1.36-4.654-2.729-5.971-2.694-2.59-6.642-.186-14.416.171-10.2.468-13.114-3.225-16.8-.512-4.237,3.115-3.8,10.49-3.668,12.027a17.855,17.855,0,0,0,2.858,8.15,37.857,37.857,0,0,1,35.722-8.349Z"/><path class="cls-3" d="M119.467,187.519a22.99,22.99,0,0,1,2.173-7.276,22.473,22.473,0,0,1,1.365-2.389,21,21,0,0,0-11.942-5.288c-9.049-.84-15.281,4.774-16.292,5.715l1.011,9.022a32.862,32.862,0,0,1,3.5-.1,45.849,45.849,0,0,1,9.222,1.436A21.4,21.4,0,0,0,119.467,187.519Z"/><path class="cls-44" d="M119.467,187.519a22.99,22.99,0,0,1,2.173-7.276,22.473,22.473,0,0,1,1.365-2.389,21,21,0,0,0-11.942-5.288c-9.049-.84-15.281,4.774-16.292,5.715l1.011,9.022a32.862,32.862,0,0,1,3.5-.1,45.849,45.849,0,0,1,9.222,1.436A21.4,21.4,0,0,0,119.467,187.519Z"/><path class="cls-45" d="M79.457,347.122a27.408,27.408,0,0,1-12.75-6.2c-9.916-8.727-9.432-21.747-9.33-23.65l7.212.759Z"/><path class="cls-3" d="M109.569,179.358a105.932,105.932,0,0,0,14.781,3.193c6.749.962,8.256.518,9.342-.237,4.307-3,2.954-11.586,2.246-16.081-1.193-7.581-2.678-17.007-9.814-19.629-5.841-2.146-12.811,1.241-16.555,5.439C103.693,158.632,103.437,169.826,109.569,179.358Z"/><path class="cls-46" d="M109.569,179.358a105.932,105.932,0,0,0,14.781,3.193c6.749.962,8.256.518,9.342-.237,4.307-3,2.954-11.586,2.246-16.081-1.193-7.581-2.678-17.007-9.814-19.629-5.841-2.146-12.811,1.241-16.555,5.439C103.693,158.632,103.437,169.826,109.569,179.358Z"/><path class="cls-9" d="M73.171,235.041,59.1,241.515a140.4,140.4,0,0,0-.406,55.673l11.771-3.241Z"/><path class="cls-47" d="M73.171,235.041,59.1,241.515a140.4,140.4,0,0,0-.406,55.673l11.771-3.241Z"/><path class="cls-9" d="M95.368,240.379a12.273,12.273,0,0,1,2.083,6.46c.707,12.434,3.009,44.856,4.741,58.026,2.571,19.559,7.679,25.512,2.729,34.12-3.02,5.252-9.138,10.37-16.377,10.577-9.791.28-16.349-8.575-18.084-10.918-12.744-17.21-.981-42.649,0-44.7a205.752,205.752,0,0,1-4.435-33.779c-.829-17.626,1.33-21,3.412-22.86C76.091,231.358,90.4,233.3,95.368,240.379Z"/><path class="cls-6" d="M134.345,151.661a10.941,10.941,0,0,0,2.128-6.12c.174-6.625-7.779-13.686-15.608-15.608-12.213-3-23.266,6.713-25.719,8.868-11.979,10.525-7.407,19.076-17.737,27.492-12.763,10.4-35.279,10-40.342,1.782a8.309,8.309,0,0,1-1.162-3.733c-1.778,2.22-7.012,9.346-5.676,18.092a19.175,19.175,0,0,0,1.241,4.434,29.492,29.492,0,0,0,13.3,6.918,30.5,30.5,0,0,0,21.284-3.37c-1.864,1.291-11.155,7.443-22.925,4.966A28.518,28.518,0,0,1,30.406,189a19.372,19.372,0,0,0,13.066,19.451,25.608,25.608,0,0,1-12.415-.946q-.8-.275-1.538-.591c.17,4.506,1.254,16.189,10.11,24.477a28.814,28.814,0,0,0,4.967,3.725,24.573,24.573,0,0,0,21.107-11,21.372,21.372,0,0,1-18.092,14.722,20.543,20.543,0,0,0,8.159,9.045,20.182,20.182,0,0,0,8.336,2.661c4.135-.591,16.347-2.905,23.945-13.125,5.928-7.975,6.757-17.68,7.095-21.639.841-9.848-2.047-10.845.177-15.786,2.746-6.1,7.756-5.935,16.673-16.673,2.667-3.212,3.819-5.154,4.168-7.627.618-4.37-1.916-5.831-1.507-10.642.27-3.186,1.838-7.923,5.232-9.312,2.682-1.1,3.9.961,7.982,0A11.436,11.436,0,0,0,134.345,151.661Z"/><path class="cls-48" d="M134.345,151.661a10.941,10.941,0,0,0,2.128-6.12c.174-6.625-7.779-13.686-15.608-15.608-12.213-3-23.266,6.713-25.719,8.868-11.979,10.525-7.407,19.076-17.737,27.492-12.763,10.4-35.279,10-40.342,1.782a8.309,8.309,0,0,1-1.162-3.733c-1.778,2.22-7.012,9.346-5.676,18.092a19.175,19.175,0,0,0,1.241,4.434,29.492,29.492,0,0,0,13.3,6.918,30.5,30.5,0,0,0,21.284-3.37c-1.864,1.291-11.155,7.443-22.925,4.966A28.518,28.518,0,0,1,30.406,189a19.372,19.372,0,0,0,13.066,19.451,25.608,25.608,0,0,1-12.415-.946q-.8-.275-1.538-.591c.17,4.506,1.254,16.189,10.11,24.477a28.814,28.814,0,0,0,4.967,3.725,24.573,24.573,0,0,0,21.107-11,21.372,21.372,0,0,1-18.092,14.722,20.543,20.543,0,0,0,8.159,9.045,20.182,20.182,0,0,0,8.336,2.661c4.135-.591,16.347-2.905,23.945-13.125,5.928-7.975,6.757-17.68,7.095-21.639.841-9.848-2.047-10.845.177-15.786,2.746-6.1,7.756-5.935,16.673-16.673,2.667-3.212,3.819-5.154,4.168-7.627.618-4.37-1.916-5.831-1.507-10.642.27-3.186,1.838-7.923,5.232-9.312,2.682-1.1,3.9.961,7.982,0A11.436,11.436,0,0,0,134.345,151.661Z"/><path class="cls-12" d="M101.589,299.739a28.306,28.306,0,0,0-31.129-5.792,48.453,48.453,0,0,0-5.569,19.685c-.311,5.222-1.078,18.091,7.679,27.664,2.232,2.439,7.709,8.427,15.974,8.266,7.893-.153,14.772-5.844,17.178-12.137,1.528-4,.989-7.606-.09-14.824-.762-5.105-1.811-7.3-3-14.68C102.074,304.479,101.764,301.63,101.589,299.739Z"/><path class="cls-19" d="M70.46,293.947c-3.262,6.663-3.611,11.869-3.241,15.524.313,3.1,1.153,5.279-.171,7-1.977,2.562-7.8,2.584-10.577.171-3.567-3.1-3.278-11.21,2.218-19.449Z"/><path class="cls-9" d="M162.584,276.205a56,56,0,0,1-1.194,25.078A56.926,56.926,0,0,1,142.624,329.6a7.455,7.455,0,0,1-2.9-4.606c-.695-4.051,2.577-6.868,2.729-7,3.7-2.825,10.878-9.211,13.667-19.579a33.2,33.2,0,0,0,1.094-6.943,58.467,58.467,0,0,1,5.37-15.274Z"/><path class="cls-6" d="M140.066,321.481a37.828,37.828,0,0,1-25.932,5.9q.426,3.156.853,6.313a42.518,42.518,0,0,0,27.637-4.1,7.121,7.121,0,0,1-2.45-3.088A7.266,7.266,0,0,1,140.066,321.481Z"/><path class="cls-6" d="M114.987,333.7a22.64,22.64,0,0,0-.572-4.234c-.549-2.353-.905-3.882-2.073-5.235-.456-.529-1.252-1.281-5.8-2.985-2.655-1-4.551-1.551-5.033-1.706-2.644-.852-6.065-3.623-9.212-12.283-4.39,9.689-3.957,19.767,1.365,25.476a16.728,16.728,0,0,0,8.757,4.777C109.118,338.541,114.142,334.413,114.987,333.7Z"/><path class="cls-11" d="M120.867,182q-1.941-.342-3.985-.781-1.307-.282-2.558-.586a9.618,9.618,0,0,0,6.1,2.6Z"/><path class="cls-49" d="M130.366,159.554q.669,2.338,1.337,4.678"/><path class="cls-28" d="M136.6,171.432l-3.816.152a7.058,7.058,0,0,0,2.131,2.465,6.92,6.92,0,0,0,1.77.916c.023-.635.026-1.308,0-2.017C136.676,172.422,136.645,171.916,136.6,171.432Z"/><path class="cls-50" d="M151.769,714.3c.434-1.929-7.316-5.261-9.535-6.215a57.649,57.649,0,0,0-12.064-3.68,18.447,18.447,0,0,1-17.066.781,8.091,8.091,0,0,0,.461,8.317,193.736,193.736,0,0,0,27.811,2.3C147.934,715.861,151.492,715.539,151.769,714.3Z"/><path class="cls-50" d="M88.482,691.7a31.219,31.219,0,0,0,3.534,12.122c3.825,7.1,8.871,9.333,8.129,10.82-1.107,2.216-13.094.63-21.766-6.6a31.775,31.775,0,0,1-8.715-11.826,7.1,7.1,0,0,1,2.009-6.133A12.6,12.6,0,0,0,88.482,691.7Z"/><path class="cls-3" d="M249.063,106.4a111,111,0,0,1,4.675-28.866c1.436-4.765,2.841-9.429,3.886-9.3,1.328.166,2.153,8.077.278,40.374Z"/><path class="cls-51" d="M249.063,106.4a111,111,0,0,1,4.675-28.866c1.436-4.765,2.841-9.429,3.886-9.3,1.328.166,2.153,8.077.278,40.374Z"/><path class="cls-52" d="M258.9,86.341c1.319-3.5,1.911-4.166,2.206-4.1.749.168.478,5.274-.643,9.723a32.4,32.4,0,0,1-1.982,5.619Z"/></g></g></svg>