<svg xmlns="http://www.w3.org/2000/svg" xmlns:xlink="http://www.w3.org/1999/xlink" width="530" height="530" viewBox="0 0 530 530"><defs><linearGradient id="linear-gradient" x1="22.466" y1="364.908" x2="180.085" y2="364.908" gradientUnits="userSpaceOnUse"><stop offset="0" stop-color="#15b5c6"/><stop offset="0.095" stop-color="#22b9c9"/><stop offset="0.27" stop-color="#43c4d1"/><stop offset="0.504" stop-color="#79d5de"/><stop offset="0.787" stop-color="#c3ecf0"/><stop offset="1" stop-color="#fff"/></linearGradient><linearGradient id="linear-gradient-2" x1="435.304" y1="348.087" x2="435.304" y2="357.411" gradientTransform="matrix(-1, 0, 0, 1, 536.58, 0)" gradientUnits="userSpaceOnUse"><stop offset="0" stop-color="#fff"/><stop offset="0.142" stop-color="#dbe3e6"/><stop offset="0.45" stop-color="#91a9b3"/><stop offset="0.706" stop-color="#5b7f8e"/><stop offset="0.896" stop-color="#3a6578"/><stop offset="1" stop-color="#2d5b6f"/></linearGradient><linearGradient id="linear-gradient-3" x1="92.819" y1="151.401" x2="266.887" y2="151.401" gradientUnits="userSpaceOnUse"><stop offset="0" stop-color="#fff"/><stop offset="1" stop-color="#d58b8c"/></linearGradient><linearGradient id="linear-gradient-4" x1="264.996" y1="151.401" x2="437.181" y2="151.401" gradientUnits="userSpaceOnUse"><stop offset="0" stop-color="#d58b8c"/><stop offset="1" stop-color="#fff"/></linearGradient><linearGradient id="linear-gradient-5" x1="170.761" y1="406.524" x2="359.239" y2="406.524" xlink:href="#linear-gradient"/><linearGradient id="linear-gradient-6" x1="265" y1="396.094" x2="265" y2="383.995" xlink:href="#linear-gradient"/><linearGradient id="linear-gradient-7" x1="265" y1="394.713" x2="265" y2="385.376" xlink:href="#linear-gradient"/><linearGradient id="linear-gradient-8" x1="240.173" y1="248.536" x2="289.827" y2="248.536" gradientUnits="userSpaceOnUse"><stop offset="0" stop-color="#f7bc55"/><stop offset="0.123" stop-color="#f8c162"/><stop offset="0.349" stop-color="#f9ce83"/><stop offset="0.651" stop-color="#fce3b9"/><stop offset="1" stop-color="#fff"/></linearGradient><linearGradient id="linear-gradient-9" x1="349.915" y1="364.908" x2="507.534" y2="364.908" xlink:href="#linear-gradient"/><linearGradient id="linear-gradient-10" x1="428.724" y1="348.087" x2="428.724" y2="357.411" gradientTransform="matrix(1, 0, 0, 1, 0, 0)" xlink:href="#linear-gradient-2"/><linearGradient id="linear-gradient-11" x1="401.074" y1="156.267" x2="419.844" y2="156.267" xlink:href="#linear-gradient-4"/><linearGradient id="linear-gradient-12" x1="271.354" y1="161.929" x2="362.769" y2="161.929" xlink:href="#linear-gradient-4"/><linearGradient id="linear-gradient-13" x1="335.871" y1="153.502" x2="424.242" y2="153.502" xlink:href="#linear-gradient-4"/><linearGradient id="linear-gradient-14" x1="289.235" y1="150.668" x2="311.562" y2="150.668" xlink:href="#linear-gradient-4"/><linearGradient id="linear-gradient-15" x1="407.653" y1="156.267" x2="426.424" y2="156.267" gradientTransform="matrix(-1, 0, 0, 1, 536.58, 0)" xlink:href="#linear-gradient-4"/><linearGradient id="linear-gradient-16" x1="277.933" y1="161.929" x2="369.348" y2="161.929" gradientTransform="matrix(-1, 0, 0, 1, 536.58, 0)" xlink:href="#linear-gradient-4"/><linearGradient id="linear-gradient-17" x1="342.45" y1="153.502" x2="430.822" y2="153.502" gradientTransform="matrix(-1, 0, 0, 1, 536.58, 0)" xlink:href="#linear-gradient-4"/><linearGradient id="linear-gradient-18" x1="240.765" y1="150.668" x2="218.438" y2="150.668" xlink:href="#linear-gradient-4"/></defs><g style="isolation:isolate"><g id="Layer_1" data-name="Layer 1"><path d="M265,122.2a33.244,33.244,0,0,0-20.916,8.8c-.25.233-.444.422-.581.557-8.841,8.657-41.984,18.758-74.444,12.136-19.717-4.023-22.8-10.874-41.291-10.656-8.047.095-23.162.273-30.636,10.952-3.862,5.517-6.347,14.784-2.072,22.792.348.653,5.394,9.668,15.392,10.359,7.3.5,16.177-3.55,18.056-11.247,1.6-6.549-1.927-15.509-8.288-16.576-5.108-.858-9.483,3.8-10.064,4.44a38.464,38.464,0,0,1,5.581-3.918c7.625-3.886,36.268,11.527,36.268,11.527,12.978,7.287,27.281,9.913,55.887,15.165a254.265,254.265,0,0,0,59,3.717h-3.774q.947.048,1.883.089Z" fill="#d58b8c"/><path d="M110.156,153.764q24.043,97.881,48.086,195.763" fill="none" stroke="#f7bc55" stroke-miterlimit="10" stroke-width="3.453"/><circle cx="157.867" cy="349.504" r="3.888" fill="#172e38"/><ellipse cx="101.276" cy="352.749" rx="78.81" ry="4.662" fill="#2d5b6f"/><path d="M180.085,352.749,145.01,372.405c0,2.575-19.581,4.662-43.734,4.662s-43.734-2.087-43.734-4.662L22.466,352.749Z" fill="#2d5b6f"/><path d="M180.085,352.749,145.01,372.405c0,2.575-19.581,4.662-43.734,4.662s-43.734-2.087-43.734-4.662L22.466,352.749Z" fill="url(#linear-gradient)" style="mix-blend-mode:multiply"/><ellipse cx="101.276" cy="352.749" rx="78.81" ry="4.662" fill="url(#linear-gradient-2)" style="mix-blend-mode:multiply"/><circle cx="110.045" cy="153.764" r="3.496" fill="#0b272d"/><path d="M110.156,153.764,56.246,356.575" fill="none" stroke="#f7bc55" stroke-miterlimit="10" stroke-width="3.453"/><circle cx="56.246" cy="356.575" r="4.143" fill="#172e38"/><path d="M419.844,153.764Q395.8,251.645,371.758,349.527" fill="none" stroke="#f7bc55" stroke-miterlimit="10" stroke-width="3.453"/><path d="M265,122.2a33.244,33.244,0,0,0-20.916,8.8c-.25.233-.444.422-.581.557-8.841,8.657-41.984,18.758-74.444,12.136-19.717-4.023-22.8-10.874-41.291-10.656-8.047.095-23.162.273-30.636,10.952-3.862,5.517-6.347,14.784-2.072,22.792.348.653,5.394,9.668,15.392,10.359,7.3.5,16.177-3.55,18.056-11.247,1.6-6.549-1.927-15.509-8.288-16.576-5.108-.858-9.483,3.8-10.064,4.44a38.464,38.464,0,0,1,5.581-3.918c7.625-3.886,36.268,11.527,36.268,11.527,12.978,7.287,27.281,9.913,55.887,15.165a254.265,254.265,0,0,0,59,3.717h-3.774q.947.048,1.883.089Z" fill="url(#linear-gradient-3)" style="mix-blend-mode:multiply"/><path d="M265,180.344a253.764,253.764,0,0,0,57.112-3.806c28.606-5.252,42.909-7.878,55.887-15.165,0,0,28.643-15.413,36.268-11.527a38.464,38.464,0,0,1,5.581,3.918c-.581-.637-4.956-5.3-10.064-4.44-6.361,1.067-9.886,10.027-8.288,16.576,1.879,7.7,10.76,11.752,18.056,11.247,10-.691,15.044-9.706,15.392-10.359,4.275-8.008,1.79-17.275-2.072-22.792-7.474-10.679-22.589-10.857-30.636-10.952-18.489-.218-21.574,6.633-41.291,10.656-32.46,6.622-65.6-3.479-74.444-12.136-.137-.135-.331-.324-.581-.557A33.244,33.244,0,0,0,265,122.2Z" fill="#d58b8c"/><path d="M265,180.344a253.764,253.764,0,0,0,57.112-3.806c28.606-5.252,42.909-7.878,55.887-15.165,0,0,28.643-15.413,36.268-11.527a38.464,38.464,0,0,1,5.581,3.918c-.581-.637-4.956-5.3-10.064-4.44-6.361,1.067-9.886,10.027-8.288,16.576,1.879,7.7,10.76,11.752,18.056,11.247,10-.691,15.044-9.706,15.392-10.359,4.275-8.008,1.79-17.275-2.072-22.792-7.474-10.679-22.589-10.857-30.636-10.952-18.489-.218-21.574,6.633-41.291,10.656-32.46,6.622-65.6-3.479-74.444-12.136-.137-.135-.331-.324-.581-.557A33.244,33.244,0,0,0,265,122.2Z" fill="url(#linear-gradient-4)" style="mix-blend-mode:multiply"/><path d="M359.239,390.045H170.761l37.3,29.3h0c0,2.019,25.494,3.655,56.943,3.655s56.943-1.636,56.943-3.655h0Z" fill="#2d5b6f"/><path d="M359.239,390.045H170.761l37.3,29.3h0c0,2.019,25.494,3.655,56.943,3.655s56.943-1.636,56.943-3.655h0Z" fill="url(#linear-gradient-5)" style="mix-blend-mode:multiply"/><ellipse cx="265" cy="390.045" rx="94.239" ry="6.05" fill="#577c8c"/><ellipse cx="265" cy="390.045" rx="94.239" ry="6.05" fill="url(#linear-gradient-6)" style="mix-blend-mode:multiply"/><path d="M265,394.713c-51.844,0-84.5-2.547-91.711-4.668,7.214-2.122,39.868-4.669,91.711-4.669s84.5,2.547,91.711,4.669C349.5,392.166,316.843,394.713,265,394.713Z" fill="url(#linear-gradient-7)" style="mix-blend-mode:multiply"/><ellipse cx="265" cy="390.045" rx="56.943" ry="3.656" fill="#b98d40"/><ellipse cx="265" cy="390.045" rx="44.955" ry="2.886" fill="#f7bc55"/><circle cx="372.133" cy="349.504" r="3.888" fill="#172e38"/><path d="M266.221,107c4,.129,12.937,1.016,18.648,7.548,8.339,9.538,4.162,24.659,1.776,33.3-3.413,12.357-8.59,18.64-11.988,24.864-9.048,16.572-4.316,30.594,4,80.363,5.485,32.845,8.241,49.694,8.88,70.6,1.72,56.233-11.558,63.63-15.1,65.156a23.242,23.242,0,0,1-14.874,0c-3.538-1.526-16.816-8.923-15.1-65.156.639-20.9,3.395-37.751,8.88-70.6,8.312-49.769,13.044-63.791,4-80.363-3.4-6.224-8.575-12.507-11.988-24.864-2.386-8.641-6.563-23.762,1.776-33.3,5.711-6.532,14.645-7.419,18.648-7.548Z" fill="#f7bc55"/><path d="M266.221,107c4,.129,12.937,1.016,18.648,7.548,8.339,9.538,4.162,24.659,1.776,33.3-3.413,12.357-8.59,18.64-11.988,24.864-9.048,16.572-4.316,30.594,4,80.363,5.485,32.845,8.241,49.694,8.88,70.6,1.72,56.233-11.558,63.63-15.1,65.156a23.242,23.242,0,0,1-14.874,0c-3.538-1.526-16.816-8.923-15.1-65.156.639-20.9,3.395-37.751,8.88-70.6,8.312-49.769,13.044-63.791,4-80.363-3.4-6.224-8.575-12.507-11.988-24.864-2.386-8.641-6.563-23.762,1.776-33.3,5.711-6.532,14.645-7.419,18.648-7.548Z" fill="url(#linear-gradient-8)" style="mix-blend-mode:multiply"/><ellipse cx="428.724" cy="352.749" rx="78.81" ry="4.662" fill="#2d5b6f"/><path d="M349.915,352.749l35.075,19.656c0,2.575,19.581,4.662,43.734,4.662s43.734-2.087,43.734-4.662l35.076-19.656Z" fill="#2d5b6f"/><path d="M349.915,352.749l35.075,19.656c0,2.575,19.581,4.662,43.734,4.662s43.734-2.087,43.734-4.662l35.076-19.656Z" fill="url(#linear-gradient-9)" style="mix-blend-mode:multiply"/><ellipse cx="428.724" cy="352.749" rx="78.81" ry="4.662" fill="url(#linear-gradient-10)" style="mix-blend-mode:multiply"/><circle cx="419.955" cy="153.764" r="3.496" fill="#0b272d"/><path d="M419.844,153.764l53.91,202.811" fill="none" stroke="#f7bc55" stroke-miterlimit="10" stroke-width="3.453"/><circle cx="473.754" cy="356.575" r="4.143" fill="#172e38"/><circle cx="266.381" cy="133.784" r="7.104" fill="#b98d40" style="mix-blend-mode:multiply"/><circle cx="265" cy="133.784" r="7.104" fill="#b98d40"/><path d="M409.132,149.33a13.492,13.492,0,0,1,10.712,4.434,9.507,9.507,0,0,0-4.662-1.813c-5.278-.489-10.949,4-14.058,11.269a14.383,14.383,0,0,1,3.325-10.576A13.1,13.1,0,0,1,409.132,149.33Z" fill="url(#linear-gradient-11)" style="mix-blend-mode:multiply"/><g style="mix-blend-mode:multiply"><path d="M275.2,171.748a47.075,47.075,0,0,0,14.335.294c8.924-1.205,15.251-4.738,19.98-7.437,12.863-7.344,12.7-12.112,23.421-15.873,3.532-1.239,6.909-1.871,13.665-3.135,6.628-1.24,12.211-1.908,16.172-2.289a73.014,73.014,0,0,0-20.075,6.41,75.7,75.7,0,0,0-12.579,7.833A80.4,80.4,0,0,0,318,169.02c-5.274,5.885-17.265,11.695-46.646,11.526Q273.274,176.147,275.2,171.748Z" fill="url(#linear-gradient-12)"/></g><path d="M353.008,170.428a114.455,114.455,0,0,1,16.221-15.7c6.681-5.3,14.292-11.331,25.751-15.1a68.014,68.014,0,0,1,29.262-2.8,50.844,50.844,0,0,0-10.691-3.084c-37.835-6.508-71.428,32.708-77.68,40.241Z" fill="url(#linear-gradient-13)" style="mix-blend-mode:multiply"/><g style="mix-blend-mode:multiply"><path d="M289.235,154.208a24.672,24.672,0,0,0,4.4-.852,10.232,10.232,0,0,0,3.644-2.142c1.034-.955,2-2.14,3.275-3.2a6.949,6.949,0,0,1,2.276-1.279,11.619,11.619,0,0,1,2.471-.448,8.62,8.62,0,0,1,2.569.218,4.579,4.579,0,0,1,2.432,1.483,4.453,4.453,0,0,1,.684,1.26,6.51,6.51,0,0,1,.34,1.269,4.028,4.028,0,0,1-.43,2.766,3.462,3.462,0,0,1-2.288,1.589,5.721,5.721,0,0,1-2.522.074,3.369,3.369,0,0,1-1.177-.569,2.22,2.22,0,0,1-.8-1.051,1.025,1.025,0,0,1,.369-1.262,1.658,1.658,0,0,1,1.185-.079,1.51,1.51,0,0,0-1,.331.589.589,0,0,0-.028.78,2.129,2.129,0,0,0,1.633.849,4.762,4.762,0,0,0,1.961-.376,2.063,2.063,0,0,0,1.248-1.055,2.684,2.684,0,0,0,.069-1.658,3.932,3.932,0,0,0-.745-1.608,4.105,4.105,0,0,0-3.366-.894,9.776,9.776,0,0,0-2,.312,5.633,5.633,0,0,0-1.683.9c-1.133.792-2.138,1.946-3.458,2.9a10.1,10.1,0,0,1-4.423,1.873A15.666,15.666,0,0,1,289.235,154.208Z" fill="url(#linear-gradient-14)"/></g><path d="M120.868,149.33a13.492,13.492,0,0,0-10.712,4.434,9.507,9.507,0,0,1,4.662-1.813c5.278-.489,10.949,4,14.058,11.269a14.383,14.383,0,0,0-3.325-10.576A13.1,13.1,0,0,0,120.868,149.33Z" fill="url(#linear-gradient-15)" style="mix-blend-mode:multiply"/><g style="mix-blend-mode:multiply"><path d="M254.8,171.748a47.075,47.075,0,0,1-14.335.294c-8.924-1.205-15.251-4.738-19.98-7.437-12.863-7.344-12.7-12.112-23.421-15.873-3.532-1.239-6.909-1.871-13.665-3.135-6.628-1.24-12.211-1.908-16.172-2.289a73.014,73.014,0,0,1,20.075,6.41,75.7,75.7,0,0,1,12.579,7.833A80.4,80.4,0,0,1,212,169.02c5.274,5.885,17.265,11.695,46.646,11.526Q256.726,176.147,254.8,171.748Z" fill="url(#linear-gradient-16)"/></g><path d="M176.992,170.428a114.455,114.455,0,0,0-16.221-15.7c-6.681-5.3-14.292-11.331-25.751-15.1a68.014,68.014,0,0,0-29.262-2.8,50.844,50.844,0,0,1,10.691-3.084c37.835-6.508,71.428,32.708,77.68,40.241Z" fill="url(#linear-gradient-17)" style="mix-blend-mode:multiply"/><g style="mix-blend-mode:multiply"><path d="M240.765,154.208a15.666,15.666,0,0,1-4.635.133,10.1,10.1,0,0,1-4.423-1.873c-1.32-.955-2.325-2.109-3.458-2.9a5.633,5.633,0,0,0-1.683-.9,9.776,9.776,0,0,0-2-.312,4.105,4.105,0,0,0-3.366.894,3.918,3.918,0,0,0-.744,1.608,2.677,2.677,0,0,0,.068,1.658,2.063,2.063,0,0,0,1.248,1.055,4.762,4.762,0,0,0,1.961.376,2.129,2.129,0,0,0,1.633-.849.589.589,0,0,0-.028-.78,1.51,1.51,0,0,0-1-.331,1.658,1.658,0,0,1,1.185.079,1.025,1.025,0,0,1,.369,1.262,2.22,2.22,0,0,1-.8,1.051,3.369,3.369,0,0,1-1.177.569,5.721,5.721,0,0,1-2.522-.074,3.462,3.462,0,0,1-2.288-1.589,4.028,4.028,0,0,1-.43-2.766,6.51,6.51,0,0,1,.34-1.269,4.453,4.453,0,0,1,.684-1.26,4.579,4.579,0,0,1,2.432-1.483,8.623,8.623,0,0,1,2.57-.218,11.621,11.621,0,0,1,2.47.448,6.949,6.949,0,0,1,2.276,1.279c1.275,1.057,2.241,2.242,3.275,3.2a10.232,10.232,0,0,0,3.644,2.142A24.672,24.672,0,0,0,240.765,154.208Z" fill="url(#linear-gradient-18)"/></g><path d="M289.583,134.007a52.812,52.812,0,0,1-6.268,29.377c-2.1,3.833-3.924,5.952-6.808,11.544-1.216,2.357-2.107,4.336-2.662,5.617h-2.491a76.409,76.409,0,0,1,3.119-7.142c2.857-5.731,4.821-7.875,7.591-13.532a74.442,74.442,0,0,0,3.2-7.6A81.23,81.23,0,0,0,289.583,134.007Z" fill="#b98d40" style="mix-blend-mode:multiply"/><path d="M240.417,134.007a52.812,52.812,0,0,0,6.268,29.377c2.1,3.833,3.924,5.952,6.808,11.544,1.216,2.357,2.107,4.336,2.662,5.617h2.491a76.409,76.409,0,0,0-3.119-7.142c-2.857-5.731-4.821-7.875-7.591-13.532a74.442,74.442,0,0,1-3.2-7.6A81.23,81.23,0,0,1,240.417,134.007Z" fill="#b98d40" style="mix-blend-mode:multiply"/></g></g></svg>