<svg xmlns="http://www.w3.org/2000/svg" xmlns:xlink="http://www.w3.org/1999/xlink" width="530" height="530" viewBox="0 0 530 530"><defs><linearGradient id="linear-gradient" x1="161.745" y1="282.755" x2="368.255" y2="282.755" gradientUnits="userSpaceOnUse"><stop offset="0" stop-color="#fff"/><stop offset="0.172" stop-color="#fdebcb"/><stop offset="0.531" stop-color="#f7bc55"/><stop offset="0.588" stop-color="#f8c162"/><stop offset="0.694" stop-color="#f9ce83"/><stop offset="0.836" stop-color="#fce3b9"/><stop offset="1" stop-color="#fff"/></linearGradient><linearGradient id="linear-gradient-2" x1="297.907" y1="304.393" x2="334.192" y2="304.393" gradientUnits="userSpaceOnUse"><stop offset="0" stop-color="#fff"/><stop offset="0.791" stop-color="#cbd5dc"/><stop offset="1" stop-color="#bdc9d2"/></linearGradient><linearGradient id="linear-gradient-3" x1="302.85" y1="237.276" x2="347.821" y2="237.276" xlink:href="#linear-gradient-2"/><linearGradient id="linear-gradient-4" x1="-2200.556" y1="304.393" x2="-2164.271" y2="304.393" gradientTransform="matrix(-1, 0, 0, 1, -1968.463, 0)" xlink:href="#linear-gradient-2"/><linearGradient id="linear-gradient-5" x1="-2195.613" y1="237.276" x2="-2150.642" y2="237.276" gradientTransform="matrix(-1, 0, 0, 1, -1968.463, 0)" xlink:href="#linear-gradient-2"/><linearGradient id="linear-gradient-6" x1="244.514" y1="261.768" x2="285.687" y2="261.768" gradientUnits="userSpaceOnUse"><stop offset="0" stop-color="#fff"/><stop offset="0.42" stop-color="#cbd5dc"/><stop offset="0.531" stop-color="#bdc9d2"/><stop offset="0.654" stop-color="#cad3db"/><stop offset="0.879" stop-color="#ebeef1"/><stop offset="1" stop-color="#fff"/></linearGradient><linearGradient id="linear-gradient-7" x1="331.652" y1="322.13" x2="456.325" y2="322.13" gradientUnits="userSpaceOnUse"><stop offset="0" stop-color="#f7bc55"/><stop offset="0.123" stop-color="#f8c162"/><stop offset="0.349" stop-color="#f9ce83"/><stop offset="0.651" stop-color="#fce3b9"/><stop offset="1" stop-color="#fff"/></linearGradient><linearGradient id="linear-gradient-8" x1="339.83" y1="382.374" x2="368.44" y2="382.374" xlink:href="#linear-gradient-2"/><linearGradient id="linear-gradient-9" x1="384.197" y1="386.799" x2="415.168" y2="386.799" xlink:href="#linear-gradient-2"/><linearGradient id="linear-gradient-10" x1="348.088" y1="331.131" x2="377.751" y2="331.131" xlink:href="#linear-gradient-2"/><linearGradient id="linear-gradient-11" x1="393.522" y1="337.648" x2="423.579" y2="337.648" xlink:href="#linear-gradient-2"/><linearGradient id="linear-gradient-12" x1="356.906" y1="286.474" x2="388.119" y2="286.474" xlink:href="#linear-gradient-2"/><linearGradient id="linear-gradient-13" x1="403.612" y1="294.667" x2="433.126" y2="294.667" xlink:href="#linear-gradient-2"/><linearGradient id="linear-gradient-14" x1="364.825" y1="245.526" x2="397.932" y2="245.526" xlink:href="#linear-gradient-2"/><linearGradient id="linear-gradient-15" x1="413.387" y1="258.366" x2="441.3" y2="258.366" xlink:href="#linear-gradient-2"/><linearGradient id="linear-gradient-16" x1="-2166.812" y1="322.13" x2="-2042.138" y2="322.13" gradientTransform="matrix(-1, 0, 0, 1, -1968.463, 0)" xlink:href="#linear-gradient-7"/><linearGradient id="linear-gradient-17" x1="-2158.633" y1="382.374" x2="-2130.024" y2="382.374" gradientTransform="matrix(-1, 0, 0, 1, -1968.463, 0)" xlink:href="#linear-gradient-2"/><linearGradient id="linear-gradient-18" x1="-2114.267" y1="386.799" x2="-2083.295" y2="386.799" gradientTransform="matrix(-1, 0, 0, 1, -1968.463, 0)" xlink:href="#linear-gradient-2"/><linearGradient id="linear-gradient-19" x1="-2150.375" y1="331.131" x2="-2120.713" y2="331.131" gradientTransform="matrix(-1, 0, 0, 1, -1968.463, 0)" xlink:href="#linear-gradient-2"/><linearGradient id="linear-gradient-20" x1="-2104.941" y1="337.648" x2="-2074.885" y2="337.648" gradientTransform="matrix(-1, 0, 0, 1, -1968.463, 0)" xlink:href="#linear-gradient-2"/><linearGradient id="linear-gradient-21" x1="-2141.557" y1="286.474" x2="-2110.344" y2="286.474" gradientTransform="matrix(-1, 0, 0, 1, -1968.463, 0)" xlink:href="#linear-gradient-2"/><linearGradient id="linear-gradient-22" x1="-2094.852" y1="294.667" x2="-2065.337" y2="294.667" gradientTransform="matrix(-1, 0, 0, 1, -1968.463, 0)" xlink:href="#linear-gradient-2"/><linearGradient id="linear-gradient-23" x1="-2133.638" y1="245.526" x2="-2100.532" y2="245.526" gradientTransform="matrix(-1, 0, 0, 1, -1968.463, 0)" xlink:href="#linear-gradient-2"/><linearGradient id="linear-gradient-24" x1="-2085.076" y1="258.366" x2="-2057.163" y2="258.366" gradientTransform="matrix(-1, 0, 0, 1, -1968.463, 0)" xlink:href="#linear-gradient-2"/></defs><g style="isolation:isolate"><g id="Layer_1" data-name="Layer 1"><path d="M265,422.205h66.652a1207.188,1207.188,0,0,1,15.3-135.489c6.077-35.63,13.389-68.835,21.306-99.431q-24.69-11.557-51.354-22.945-26.539-11.3-51.9-21.034-25.334,9.753-51.9,21.034-26.659,11.352-51.354,22.945c7.917,30.6,15.229,63.8,21.306,99.431a1207.188,1207.188,0,0,1,15.3,135.489Z" fill="#f8d893"/><path d="M265,422.205h66.652a1207.188,1207.188,0,0,1,15.3-135.489c6.077-35.63,13.389-68.835,21.306-99.431q-24.69-11.557-51.354-22.945-26.539-11.3-51.9-21.034-25.334,9.753-51.9,21.034-26.659,11.352-51.354,22.945c7.917,30.6,15.229,63.8,21.306,99.431a1207.188,1207.188,0,0,1,15.3,135.489Z" fill="url(#linear-gradient)" style="mix-blend-mode:multiply"/><path d="M306.03,190.078c-12.31-.856-25.157-1.366-39.33-1.366-12.6,0-25.48.4-39.33,1.366q-.133-4.3-.324-8.7-.219-5-.5-9.879c12.567-.856,25.981-1.366,40.155-1.366,12.6,0,26.014.4,40.154,1.366q-.285,4.733-.5,9.606Q306.155,185.651,306.03,190.078Z" opacity="0.35" style="mix-blend-mode:multiply"/><path d="M304.33,188.378c-12.309-.856-25.157-1.366-39.33-1.366-12.6,0-25.48.4-39.33,1.366q-.133-4.3-.324-8.7-.218-5-.5-9.879c12.567-.856,25.982-1.366,40.155-1.366,12.6,0,26.014.4,40.155,1.366q-.286,4.734-.5,9.606Q304.455,183.951,304.33,188.378Z" fill="#7c5e2b"/><path d="M228.131,185.657q-.1-3.021-.238-6.086c-.106-2.442-.227-4.918-.361-7.391,12.433-.791,25.025-1.193,37.468-1.193s25.03.4,37.463,1.193c-.133,2.367-.252,4.751-.356,7.117-.092,2.1-.174,4.232-.244,6.36-12.359-.8-24.446-1.2-36.863-1.2S240.492,184.854,228.131,185.657Z" fill="#7c5e2b" opacity="0.25" style="mix-blend-mode:multiply"/><path d="M228.131,185.657q-.1-3.021-.238-6.086c-.106-2.442-.227-4.918-.361-7.391,12.433-.791,25.025-1.193,37.468-1.193s25.03.4,37.463,1.193c-.133,2.367-.252,4.751-.356,7.117-.092,2.1-.174,4.232-.244,6.36-12.359-.8-24.446-1.2-36.863-1.2S240.492,184.854,228.131,185.657Z" fill="none" stroke="#7c5e2b" stroke-miterlimit="10" stroke-width="0.85" opacity="0.5" style="mix-blend-mode:multiply"/><path d="M233.313,351.456H265v70.749H234.224Q233.768,386.831,233.313,351.456Z" fill="#172e38"/><path d="M236.591,356.464H265v65.741H237.407Z" fill="#2d5b6f"/><path d="M296.687,351.456a2.747,2.747,0,0,1,.728-1.457,2.884,2.884,0,0,1,2.14-.82,2.158,2.158,0,0,1,0-.91,2.618,2.618,0,0,1,1.5-1.685l-36.057.41-36.057-.41a2.618,2.618,0,0,1,1.5,1.685,2.158,2.158,0,0,1,0,.91,2.884,2.884,0,0,1,2.14.82,2.747,2.747,0,0,1,.728,1.457Z" fill="#2d5b6f"/><polygon points="239.925 419.655 239.172 359.013 262.451 359.013 262.451 419.655 239.925 419.655" fill="none" stroke="#0b272d" stroke-miterlimit="10" stroke-width="0.776" opacity="0.35"/><path d="M194.721,287.9q1.337,11.583,2.732,23.245,1.213,10.142,2.459,20.214a144.643,144.643,0,0,1,36.558-3.668q-1.071-22.285-2.14-44.571a136.3,136.3,0,0,0-39.609,4.78Z" opacity="0.35" style="mix-blend-mode:multiply"/><path d="M191.307,268.323q-1.437-8.892-3.278-18.21c-2.194-11.053-4.656-21.563-7.284-31.5,8.239-1.9,17.245-3.608,26.952-4.917,6.973-.94,13.635-1.585,19.94-2q1.978,25.555,3.956,51.112c-4.7.208-9.637.577-14.791,1.153A221.645,221.645,0,0,0,191.307,268.323Z" opacity="0.35" style="mix-blend-mode:multiply"/><path d="M338.678,287.9q-1.337,11.583-2.732,23.245-1.214,10.142-2.458,20.214a144.643,144.643,0,0,0-36.558-3.668l2.139-44.571a136.3,136.3,0,0,1,39.609,4.78Z" opacity="0.35" style="mix-blend-mode:multiply"/><path d="M342.092,268.323q1.437-8.892,3.278-18.21c2.195-11.053,4.656-21.563,7.285-31.5-8.24-1.9-17.246-3.608-26.952-4.917-6.974-.94-13.636-1.585-19.941-2q-1.978,25.555-3.956,51.112c4.7.208,9.637.577,14.791,1.153A221.57,221.57,0,0,1,342.092,268.323Z" opacity="0.35" style="mix-blend-mode:multiply"/><path d="M193.022,285.351q1.335,11.583,2.731,23.245,1.215,10.14,2.459,20.214a144.587,144.587,0,0,1,36.558-3.669q-1.07-22.286-2.14-44.571a136.259,136.259,0,0,0-39.608,4.781Z" fill="#2d5b6f"/><path d="M200.4,325.715q-1.068-8.685-2.114-17.422-1.263-10.554-2.478-21.043a133.874,133.874,0,0,1,33.167-4.179c.412,0,.819,0,1.224.006l1.894,39.466q-.63-.006-1.271,0c-4.454,0-8.963.2-13.4.61A147.969,147.969,0,0,0,200.4,325.715Z" fill="#ebeff1"/><path d="M189.607,265.774q-1.437-8.893-3.278-18.211c-2.194-11.053-4.656-21.562-7.284-31.5,8.24-1.9,17.245-3.608,26.952-4.917,6.973-.941,13.636-1.586,19.941-2q1.977,25.557,3.956,51.113c-4.7.208-9.637.576-14.792,1.152A221.636,221.636,0,0,0,189.607,265.774Z" fill="#2d5b6f"/><path d="M191.684,262.691c-.868-5.2-1.826-10.447-2.854-15.624-1.927-9.707-4.162-19.484-6.651-29.1,7.974-1.765,16.088-3.207,24.158-4.3,5.7-.768,11.487-1.375,17.255-1.807l3.558,45.975c-4.116.231-8.253.578-12.331,1.034A224.812,224.812,0,0,0,191.684,262.691Z" fill="#ebeff1"/><path d="M314.169,149.316A363.246,363.246,0,0,1,265,107.249a363.246,363.246,0,0,1-49.169,42.067,363.564,363.564,0,0,1-68.291,38.243l4.1,8.741L265,149.043,378.362,196.3l4.1-8.741A363.564,363.564,0,0,1,314.169,149.316Z" fill="#2d5b6f"/><path d="M296.687,351.456H265v70.749h30.776Q296.232,386.831,296.687,351.456Z" fill="#172e38"/><path d="M293.409,356.464H265v65.741h27.593Z" fill="#2d5b6f"/><polygon points="267.55 419.655 267.55 359.013 290.828 359.013 290.075 419.655 267.55 419.655" fill="none" stroke="#0b272d" stroke-miterlimit="10" stroke-width="0.776" opacity="0.35"/><path d="M299.555,349.179,265,349.2l-34.555-.023" fill="none" stroke="#0b272d" stroke-miterlimit="10" stroke-width="0.776" opacity="0.35"/><path d="M336.978,285.351q-1.335,11.583-2.731,23.245-1.215,10.14-2.459,20.214a144.587,144.587,0,0,0-36.558-3.669q1.069-22.286,2.14-44.571a136.259,136.259,0,0,1,39.608,4.781Z" fill="#2d5b6f"/><path d="M329.6,325.715a147.936,147.936,0,0,0-17.021-2.567c-4.433-.405-8.939-.61-13.394-.61q-.645,0-1.279,0l1.9-39.466q.606-.006,1.223-.006a133.731,133.731,0,0,1,33.167,4.179q-1.214,10.49-2.477,21.043Q330.67,317.029,329.6,325.715Z" fill="#ebeff1"/><path d="M340.393,265.774q1.437-8.893,3.278-18.211c2.194-11.053,4.656-21.562,7.284-31.5-8.24-1.9-17.245-3.608-26.952-4.917-6.973-.941-13.636-1.586-19.941-2q-1.977,25.557-3.956,51.113c4.7.208,9.637.576,14.792,1.152A221.636,221.636,0,0,1,340.393,265.774Z" fill="#2d5b6f"/><path d="M338.315,262.691a224.975,224.975,0,0,0-23.134-3.821c-4.077-.456-8.213-.8-12.331-1.034l3.558-45.975c5.767.432,11.559,1.039,17.253,1.807,8.071,1.089,16.186,2.531,24.16,4.3-2.488,9.61-4.722,19.387-6.651,29.1C340.142,252.244,339.184,257.487,338.315,262.691Z" fill="#ebeff1"/><path d="M329.6,325.715a147.936,147.936,0,0,0-17.021-2.567c-4.433-.405-8.939-.61-13.394-.61q-.645,0-1.279,0l1.9-39.466q.606-.006,1.223-.006a133.731,133.731,0,0,1,33.167,4.179q-1.214,10.49-2.477,21.043Q330.67,317.029,329.6,325.715Z" fill="url(#linear-gradient-2)" style="mix-blend-mode:multiply"/><path d="M338.315,262.691a224.975,224.975,0,0,0-23.134-3.821c-4.077-.456-8.213-.8-12.331-1.034l3.558-45.975c5.767.432,11.559,1.039,17.253,1.807,8.071,1.089,16.186,2.531,24.16,4.3-2.488,9.61-4.722,19.387-6.651,29.1C340.142,252.244,339.184,257.487,338.315,262.691Z" fill="url(#linear-gradient-3)" style="mix-blend-mode:multiply"/><path d="M200.4,325.715a147.936,147.936,0,0,1,17.021-2.567c4.433-.405,8.939-.61,13.394-.61q.645,0,1.279,0L230.2,283.077q-.606-.006-1.223-.006a133.731,133.731,0,0,0-33.167,4.179q1.214,10.49,2.477,21.043Q199.331,317.029,200.4,325.715Z" fill="url(#linear-gradient-4)" style="mix-blend-mode:multiply"/><path d="M191.685,262.691a224.975,224.975,0,0,1,23.134-3.821c4.077-.456,8.213-.8,12.331-1.034l-3.558-45.975c-5.767.432-11.559,1.039-17.253,1.807-8.071,1.089-16.186,2.531-24.16,4.3,2.488,9.61,4.722,19.387,6.651,29.1C189.858,252.244,190.816,257.487,191.685,262.691Z" fill="url(#linear-gradient-5)" style="mix-blend-mode:multiply"/><path d="M285.032,326.234H244.968c-.326-20.862-1.136-42.619-2.549-65.195-1.385-22.119-3.247-43.384-5.464-63.738h56.09q-2.523,31.424-4.553,63.875Q286.434,294.2,285.032,326.234Z" fill="#2d5b6f"/><path d="M247.476,323.685c-.365-20.873-1.21-41.989-2.513-62.805-1.269-20.281-3.007-40.8-5.168-61.029h50.489c-1.614,20.3-3.072,40.865-4.337,61.166-1.293,20.758-2.421,41.828-3.354,62.668Z" fill="none" stroke="#0b272d" stroke-miterlimit="10" stroke-width="0.776" opacity="0.35"/><path d="M251.645,319.435c-.4-19.571-1.221-39.336-2.441-58.821-1.174-18.754-2.75-37.74-4.69-56.514h41.173c-1.473,18.844-2.811,37.879-3.98,56.654-1.211,19.426-2.279,39.147-3.175,58.681Z" fill="#ebeff1"/><path d="M251.645,319.435c-.4-19.571-1.221-39.336-2.441-58.821-1.174-18.754-2.75-37.74-4.69-56.514h41.173c-1.473,18.844-2.811,37.879-3.98,56.654-1.211,19.426-2.279,39.147-3.175,58.681Z" fill="url(#linear-gradient-6)" style="mix-blend-mode:multiply"/><path d="M363.949,204.444l103.919,38.02q2.914,9.469,5.828,18.939l-113.765-39.9Z" fill="#2d5b6f"/><path d="M456.325,255.312q-9.537,39.541-18.14,82.212-8.795,43.908-15.3,85.227l-91.236-.546A1207.333,1207.333,0,0,1,344.507,301.6c4.455-28.244,9.7-54.972,15.424-80.091Z" fill="#f8d893"/><path d="M456.325,255.312q-9.537,39.541-18.14,82.212-8.795,43.908-15.3,85.227l-91.236-.546A1207.333,1207.333,0,0,1,344.507,301.6c4.455-28.244,9.7-54.972,15.424-80.091Z" fill="url(#linear-gradient-7)" style="mix-blend-mode:multiply"/><path d="M340.256,366.889l31.277,3.142c-1.572,7.14-2.96,14.611-4.1,22.4q-.391,2.676-.731,5.312l-29.59-1.488c.364-5.832.9-11.911,1.639-18.211Q339.427,372.314,340.256,366.889Z" fill="#2d5b6f"/><path d="M339.83,393.839c.365-5.177.853-10.378,1.456-15.5.337-2.871.718-5.778,1.136-8.671l26.018,2.612c-1.38,6.551-2.565,13.191-3.527,19.78q-.221,1.515-.426,3.016Z" fill="#ebeff1"/><path d="M381.367,398.9l30.457,2.276q3.279-12.224,6.556-24.448l-32.506-4.439q-1.1,4.694-2.049,9.766C382.728,387.946,381.932,393.578,381.367,398.9Z" fill="#2d5b6f"/><path d="M384.2,396.55c.558-4.7,1.274-9.408,2.135-14.034.456-2.453.962-4.93,1.509-7.39l27.327,3.732-5.259,19.613Z" fill="#ebeff1"/><path d="M339.83,393.839c.365-5.177.853-10.378,1.456-15.5.337-2.871.718-5.778,1.136-8.671l26.018,2.612c-1.38,6.551-2.565,13.191-3.527,19.78q-.221,1.515-.426,3.016Z" fill="url(#linear-gradient-8)" style="mix-blend-mode:multiply"/><path d="M384.2,396.55c.558-4.7,1.274-9.408,2.135-14.034.456-2.453.962-4.93,1.509-7.39l27.327,3.732-5.259,19.613Z" fill="url(#linear-gradient-9)" style="mix-blend-mode:multiply"/><path d="M339.6,366.54q-.363,2.185-.728,4.371l35.01,3.824q.342-2.253.683-4.507Z" opacity="0.35" style="mix-blend-mode:multiply"/><path d="M338.754,364.841l-.729,4.37,35.011,3.825q.34-2.254.682-4.508Z" fill="#f7bc55"/><path d="M385.02,371.466q-.363,2.184-.728,4.37l36.9,4.863q.341-2.139.683-4.279Z" opacity="0.35" style="mix-blend-mode:multiply"/><path d="M384.171,369.766l-.729,4.371,36.9,4.863q.342-2.141.683-4.28Z" fill="#f7bc55"/><path d="M348.671,315.113l32.166,4.953c-1.588,6.907-2.991,14.159-4.143,21.746q-.4,2.61-.741,5.183l-30.583-2.71c.384-5.815.945-11.865,1.724-18.121Q347.8,320.477,348.671,315.113Z" fill="#2d5b6f"/><path d="M348.088,341.967c.384-5.173.9-10.372,1.536-15.488.349-2.809.743-5.644,1.172-8.459l26.955,4.151c-1.4,6.356-2.6,12.822-3.578,19.259q-.215,1.41-.413,2.812Z" fill="#ebeff1"/><path d="M390.7,348.706l29.8,3.345,6.271-23.022-31.589-5.966q-1.088,4.5-2.033,9.375C392.052,338.116,391.259,343.557,390.7,348.706Z" fill="#2d5b6f"/><path d="M393.522,346.458c.556-4.538,1.268-9.082,2.124-13.54.441-2.3.927-4.608,1.452-6.9l26.481,5-4.972,18.252Z" fill="#ebeff1"/><path d="M348.088,341.967c.384-5.173.9-10.372,1.536-15.488.349-2.809.743-5.644,1.172-8.459l26.955,4.151c-1.4,6.356-2.6,12.822-3.578,19.259q-.215,1.41-.413,2.812Z" fill="url(#linear-gradient-10)" style="mix-blend-mode:multiply"/><path d="M393.522,346.458c.556-4.538,1.268-9.082,2.124-13.54.441-2.3.927-4.608,1.452-6.9l26.481,5-4.972,18.252Z" fill="url(#linear-gradient-11)" style="mix-blend-mode:multiply"/><path d="M347.944,314.674q-.382,2.16-.766,4.323L383.2,324.79q.343-2.184.687-4.368Z" opacity="0.35" style="mix-blend-mode:multiply"/><path d="M394.335,322.224q-.361,2.1-.724,4.206l35.866,6.56q.326-2.016.649-4.032Z" opacity="0.35" style="mix-blend-mode:multiply"/><path d="M347.094,312.974q-.382,2.162-.766,4.323l36.023,5.793.687-4.368Z" fill="#f7bc55"/><path d="M393.485,320.524q-.361,2.1-.724,4.206l35.867,6.56.648-4.032Z" fill="#f7bc55"/><path d="M357.714,270l33.527,6.633c-1.711,6.714-3.233,13.754-4.5,21.1q-.435,2.523-.815,5.006l-31.747-3.67c.408-5.766,1.006-11.781,1.839-18.016Q356.779,275.379,357.714,270Z" fill="#2d5b6f"/><path d="M356.906,296.826c.41-5.145.96-10.323,1.641-15.427.372-2.786.79-5.6,1.246-8.384l28.326,5.6c-1.508,6.175-2.814,12.449-3.888,18.691q-.228,1.317-.44,2.624Z" fill="#ebeff1"/><path d="M400.736,304.847l29,4,6.639-21.481-30.711-7.11q-1.17,4.321-2.2,9.008C402.269,294.713,401.385,299.924,400.736,304.847Z" fill="#2d5b6f"/><path d="M403.612,302.671c.629-4.314,1.413-8.628,2.337-12.858.474-2.171.992-4.352,1.546-6.511l25.631,5.934-5.19,16.8Z" fill="#ebeff1"/><path d="M356.906,296.826c.41-5.145.96-10.323,1.641-15.427.372-2.786.79-5.6,1.246-8.384l28.326,5.6c-1.508,6.175-2.814,12.449-3.888,18.691q-.228,1.317-.44,2.624Z" fill="url(#linear-gradient-12)" style="mix-blend-mode:multiply"/><path d="M403.612,302.671c.629-4.314,1.413-8.628,2.337-12.858.474-2.171.992-4.352,1.546-6.511l25.631,5.934-5.19,16.8Z" fill="url(#linear-gradient-13)" style="mix-blend-mode:multiply"/><path d="M356.879,269.449l-.822,4.336,37.532,7.6q.381-2.129.762-4.26Z" opacity="0.35" style="mix-blend-mode:multiply"/><path d="M404.866,279.406q-.4,2.034-.8,4.065l34.866,7.814q.369-1.893.739-3.789Z" opacity="0.35" style="mix-blend-mode:multiply"/><path d="M356.029,267.749l-.822,4.336,37.533,7.6q.38-2.129.761-4.26Z" fill="#f7bc55"/><path d="M404.016,277.706l-.8,4.066q18,4.034,34.866,7.814.369-1.895.739-3.79Z" fill="#f7bc55"/><path d="M365.948,227.692l35.088,10.84c-1.729,6.252-3.273,12.862-4.561,19.819q-.444,2.391-.831,4.753L362.1,256.275c.447-5.72,1.1-11.661,2.008-17.783Q364.933,232.919,365.948,227.692Z" fill="#2d5b6f"/><path d="M364.825,254.229c.448-5.151,1.054-10.308,1.8-15.363.391-2.637.826-5.282,1.3-7.894l30,9.27c-1.536,5.794-2.867,11.717-3.965,17.645q-.2,1.1-.395,2.193Z" fill="#ebeff1"/><path d="M410.523,266.5l27.829,6.257,6.141-19.147-29.125-9.923q-1.147,3.957-2.161,8.289C412.037,257.02,411.164,261.882,410.523,266.5Z" fill="#2d5b6f"/><path d="M413.387,264.532c.619-4.032,1.392-8.051,2.3-11.977.434-1.869.905-3.738,1.405-5.583l24.2,8.246-4.663,14.542Z" fill="#ebeff1"/><path d="M364.825,254.229c.448-5.151,1.054-10.308,1.8-15.363.391-2.637.826-5.282,1.3-7.894l30,9.27c-1.536,5.794-2.867,11.717-3.965,17.645q-.2,1.1-.395,2.193Z" fill="url(#linear-gradient-14)" style="mix-blend-mode:multiply"/><path d="M413.387,264.532c.619-4.032,1.392-8.051,2.3-11.977.434-1.869.905-3.738,1.405-5.583l24.2,8.246-4.663,14.542Z" fill="url(#linear-gradient-15)" style="mix-blend-mode:multiply"/><path d="M364.966,226.908q-.449,2.107-.9,4.215L403.4,243.336l.765-3.992Z" opacity="0.35" style="mix-blend-mode:multiply"/><path d="M414.606,242.779q-.394,1.881-.787,3.762l33.092,10.969q.339-1.7.677-3.392Z" opacity="0.35" style="mix-blend-mode:multiply"/><path d="M364.116,225.208q-.447,2.107-.9,4.215l39.326,12.214.765-3.993Z" fill="#f7bc55"/><path d="M413.756,241.08q-.393,1.879-.787,3.761l33.093,10.969q.337-1.695.676-3.391Z" fill="#f7bc55"/><path d="M166.051,204.444,62.132,242.464Q59.218,251.933,56.3,261.4l113.765-39.9Z" fill="#2d5b6f"/><path d="M73.675,255.312q9.537,39.541,18.14,82.212,8.795,43.908,15.3,85.227l91.236-.546A1207.333,1207.333,0,0,0,185.493,301.6c-4.455-28.244-9.7-54.972-15.424-80.091Z" fill="#f8d893"/><path d="M73.675,255.312q9.537,39.541,18.14,82.212,8.795,43.908,15.3,85.227l91.236-.546A1207.333,1207.333,0,0,0,185.493,301.6c-4.455-28.244-9.7-54.972-15.424-80.091Z" fill="url(#linear-gradient-16)" style="mix-blend-mode:multiply"/><path d="M189.744,366.889l-31.277,3.142c1.572,7.14,2.96,14.611,4.1,22.4q.391,2.676.731,5.312l29.59-1.488c-.364-5.832-.9-11.911-1.639-18.211Q190.573,372.314,189.744,366.889Z" fill="#2d5b6f"/><path d="M190.17,393.839c-.365-5.177-.853-10.378-1.456-15.5-.337-2.871-.718-5.778-1.136-8.671l-26.018,2.612c1.38,6.551,2.565,13.191,3.527,19.78q.221,1.515.426,3.016Z" fill="#ebeff1"/><path d="M148.633,398.9l-30.457,2.276q-3.279-12.224-6.556-24.448l32.506-4.439q1.1,4.694,2.049,9.766C147.272,387.946,148.068,393.578,148.633,398.9Z" fill="#2d5b6f"/><path d="M145.8,396.55c-.558-4.7-1.274-9.408-2.135-14.034-.456-2.453-.962-4.93-1.509-7.39l-27.327,3.732,5.259,19.613Z" fill="#ebeff1"/><path d="M190.17,393.839c-.365-5.177-.853-10.378-1.456-15.5-.337-2.871-.718-5.778-1.136-8.671l-26.018,2.612c1.38,6.551,2.565,13.191,3.527,19.78q.221,1.515.426,3.016Z" fill="url(#linear-gradient-17)" style="mix-blend-mode:multiply"/><path d="M145.8,396.55c-.558-4.7-1.274-9.408-2.135-14.034-.456-2.453-.962-4.93-1.509-7.39l-27.327,3.732,5.259,19.613Z" fill="url(#linear-gradient-18)" style="mix-blend-mode:multiply"/><path d="M190.4,366.54q.363,2.185.728,4.371l-35.01,3.824q-.342-2.253-.683-4.507Z" opacity="0.35" style="mix-blend-mode:multiply"/><path d="M191.246,364.841l.729,4.37-35.011,3.825q-.341-2.254-.682-4.508Z" fill="#f7bc55"/><path d="M144.98,371.466q.363,2.184.728,4.37l-36.9,4.863q-.341-2.139-.683-4.279Z" opacity="0.35" style="mix-blend-mode:multiply"/><path d="M145.829,369.766l.729,4.371L109.662,379q-.342-2.141-.683-4.28Z" fill="#f7bc55"/><path d="M181.329,315.113l-32.166,4.953c1.588,6.907,2.991,14.159,4.143,21.746q.4,2.61.741,5.183l30.583-2.71c-.384-5.815-.945-11.865-1.724-18.121Q182.2,320.477,181.329,315.113Z" fill="#2d5b6f"/><path d="M181.912,341.967c-.384-5.173-.9-10.372-1.536-15.488-.349-2.809-.743-5.644-1.172-8.459l-26.955,4.151c1.4,6.356,2.6,12.822,3.578,19.259q.214,1.41.413,2.812Z" fill="#ebeff1"/><path d="M139.3,348.706l-29.8,3.345-6.271-23.022,31.589-5.966q1.088,4.5,2.033,9.375C137.948,338.116,138.741,343.557,139.3,348.706Z" fill="#2d5b6f"/><path d="M136.478,346.458c-.556-4.538-1.268-9.082-2.124-13.54-.441-2.3-.927-4.608-1.452-6.9l-26.481,5,4.972,18.252Z" fill="#ebeff1"/><path d="M181.912,341.967c-.384-5.173-.9-10.372-1.536-15.488-.349-2.809-.743-5.644-1.172-8.459l-26.955,4.151c1.4,6.356,2.6,12.822,3.578,19.259q.214,1.41.413,2.812Z" fill="url(#linear-gradient-19)" style="mix-blend-mode:multiply"/><path d="M136.478,346.458c-.556-4.538-1.268-9.082-2.124-13.54-.441-2.3-.927-4.608-1.452-6.9l-26.481,5,4.972,18.252Z" fill="url(#linear-gradient-20)" style="mix-blend-mode:multiply"/><path d="M182.056,314.674q.382,2.16.766,4.323L146.8,324.79q-.344-2.184-.687-4.368Z" opacity="0.35" style="mix-blend-mode:multiply"/><path d="M135.665,322.224q.362,2.1.724,4.206l-35.866,6.56q-.326-2.016-.649-4.032Z" opacity="0.35" style="mix-blend-mode:multiply"/><path d="M182.906,312.974q.382,2.162.766,4.323l-36.023,5.793-.687-4.368Z" fill="#f7bc55"/><path d="M136.515,320.524q.362,2.1.724,4.206l-35.867,6.56-.648-4.032Z" fill="#f7bc55"/><path d="M172.286,270l-33.527,6.633c1.711,6.714,3.233,13.754,4.5,21.1q.435,2.523.815,5.006l31.747-3.67c-.408-5.766-1.006-11.781-1.839-18.016Q173.221,275.379,172.286,270Z" fill="#2d5b6f"/><path d="M173.094,296.826c-.41-5.145-.96-10.323-1.641-15.427-.372-2.786-.79-5.6-1.246-8.384l-28.326,5.6c1.508,6.175,2.814,12.449,3.888,18.691q.228,1.317.44,2.624Z" fill="#ebeff1"/><path d="M129.264,304.847l-29,4-6.639-21.481,30.711-7.11q1.17,4.321,2.2,9.008C127.731,294.713,128.615,299.924,129.264,304.847Z" fill="#2d5b6f"/><path d="M126.388,302.671c-.629-4.314-1.413-8.628-2.337-12.858-.474-2.171-.992-4.352-1.546-6.511l-25.631,5.934,5.19,16.8Z" fill="#ebeff1"/><path d="M173.094,296.826c-.41-5.145-.96-10.323-1.641-15.427-.372-2.786-.79-5.6-1.246-8.384l-28.326,5.6c1.508,6.175,2.814,12.449,3.888,18.691q.228,1.317.44,2.624Z" fill="url(#linear-gradient-21)" style="mix-blend-mode:multiply"/><path d="M126.388,302.671c-.629-4.314-1.413-8.628-2.337-12.858-.474-2.171-.992-4.352-1.546-6.511l-25.631,5.934,5.19,16.8Z" fill="url(#linear-gradient-22)" style="mix-blend-mode:multiply"/><path d="M173.121,269.449l.822,4.336-37.532,7.6-.762-4.26Z" opacity="0.35" style="mix-blend-mode:multiply"/><path d="M125.134,279.406q.4,2.034.8,4.065l-34.866,7.814q-.369-1.893-.739-3.789Z" opacity="0.35" style="mix-blend-mode:multiply"/><path d="M173.971,267.749l.822,4.336-37.533,7.6q-.379-2.129-.761-4.26Z" fill="#f7bc55"/><path d="M125.984,277.706l.8,4.066q-18,4.034-34.866,7.814-.369-1.895-.739-3.79Z" fill="#f7bc55"/><path d="M164.052,227.692l-35.088,10.84c1.729,6.252,3.273,12.862,4.561,19.819q.444,2.391.831,4.753l33.546-6.829c-.447-5.72-1.1-11.661-2.008-17.783Q165.068,232.919,164.052,227.692Z" fill="#2d5b6f"/><path d="M165.175,254.229c-.448-5.151-1.054-10.308-1.8-15.363-.391-2.637-.826-5.282-1.3-7.894l-30,9.27c1.536,5.794,2.867,11.717,3.965,17.645q.2,1.1.4,2.193Z" fill="#ebeff1"/><path d="M119.477,266.5l-27.829,6.257-6.141-19.147,29.125-9.923q1.148,3.957,2.161,8.289C117.963,257.02,118.836,261.882,119.477,266.5Z" fill="#2d5b6f"/><path d="M116.613,264.532c-.619-4.032-1.392-8.051-2.3-11.977-.434-1.869-.905-3.738-1.405-5.583l-24.2,8.246,4.663,14.542Z" fill="#ebeff1"/><path d="M165.175,254.229c-.448-5.151-1.054-10.308-1.8-15.363-.391-2.637-.826-5.282-1.3-7.894l-30,9.27c1.536,5.794,2.867,11.717,3.965,17.645q.2,1.1.4,2.193Z" fill="url(#linear-gradient-23)" style="mix-blend-mode:multiply"/><path d="M116.613,264.532c-.619-4.032-1.392-8.051-2.3-11.977-.434-1.869-.905-3.738-1.405-5.583l-24.2,8.246,4.663,14.542Z" fill="url(#linear-gradient-24)" style="mix-blend-mode:multiply"/><path d="M165.034,226.908q.449,2.107.9,4.215L126.6,243.336l-.765-3.992Z" opacity="0.35" style="mix-blend-mode:multiply"/><path d="M115.394,242.779q.394,1.881.787,3.762L83.089,257.51q-.339-1.7-.677-3.392Z" opacity="0.35" style="mix-blend-mode:multiply"/><path d="M165.884,225.208q.447,2.107.9,4.215l-39.326,12.214-.765-3.993Z" fill="#f7bc55"/><path d="M116.244,241.08q.393,1.879.787,3.761L83.938,255.81q-.338-1.695-.676-3.391Z" fill="#f7bc55"/><path d="M376.007,208.855a1040.822,1040.822,0,0,0-24.142,112.28c-5.713,36.194-9.1,70.084-10.93,101.125l-9.283-.055A1207.035,1207.035,0,0,1,344.507,301.6c5.488-34.791,12.167-67.239,19.442-97.155Z" opacity="0.35" style="mix-blend-mode:multiply"/><path d="M176.389,217.288q.615,1.98,1.229,3.961a223.4,223.4,0,0,1,53.4-7.649q-.273-2.732-.547-5.463a254.4,254.4,0,0,0-54.086,9.151Z" opacity="0.35" style="mix-blend-mode:multiply"/><path d="M191.55,286.261l.273,3.551a151.668,151.668,0,0,1,45.208-4.507q-.3-2.709-.592-5.418a204.835,204.835,0,0,0-44.889,6.374Z" opacity="0.35" style="mix-blend-mode:multiply"/><path d="M355.31,217.288q-.613,1.98-1.229,3.961a223.38,223.38,0,0,0-53.4-7.649l.546-5.463a254.377,254.377,0,0,1,54.086,9.151Z" opacity="0.35" style="mix-blend-mode:multiply"/><path d="M340.15,286.261l-.273,3.551a151.67,151.67,0,0,0-45.209-4.507q.3-2.709.592-5.418a204.854,204.854,0,0,1,44.89,6.374Z" opacity="0.35" style="mix-blend-mode:multiply"/><path d="M175.539,214.738l1.23,3.961a223.309,223.309,0,0,1,53.4-7.648l-.546-5.464a254.4,254.4,0,0,0-54.087,9.151Z" fill="#f7bc55"/><path d="M190.7,283.712l.273,3.551a151.58,151.58,0,0,1,45.208-4.507l-.591-5.418a204.854,204.854,0,0,0-44.89,6.374Z" fill="#f7bc55"/><path d="M354.461,214.738l-1.23,3.961a223.309,223.309,0,0,0-53.4-7.648l.546-5.464a254.4,254.4,0,0,1,54.087,9.151Z" fill="#f7bc55"/><path d="M339.3,283.712l-.273,3.551a151.58,151.58,0,0,0-45.208-4.507l.591-5.418a204.854,204.854,0,0,1,44.89,6.374Z" fill="#f7bc55"/></g></g></svg>