<svg xmlns="http://www.w3.org/2000/svg" xmlns:xlink="http://www.w3.org/1999/xlink" width="530" height="530" viewBox="0 0 530 530"><defs><linearGradient id="linear-gradient" x1="318.529" y1="96.002" x2="288.731" y2="169.557" gradientUnits="userSpaceOnUse"><stop offset="0" stop-color="#fff"/><stop offset="0.074" stop-color="#fff6ed"/><stop offset="0.217" stop-color="#ffe8d1"/><stop offset="0.371" stop-color="#fdb"/><stop offset="0.538" stop-color="#ffd5ab"/><stop offset="0.73" stop-color="#ffd0a2"/><stop offset="1" stop-color="#ffcf9f"/></linearGradient><linearGradient id="linear-gradient-2" x1="221.435" y1="149.643" x2="232.018" y2="167.973" gradientUnits="userSpaceOnUse"><stop offset="0" stop-color="#ffcf9f"/><stop offset="0.065" stop-color="#ffd4a9"/><stop offset="0.341" stop-color="#ffe7ce"/><stop offset="0.598" stop-color="#fff4e9"/><stop offset="0.825" stop-color="#fffcf9"/><stop offset="1" stop-color="#fff"/></linearGradient><linearGradient id="linear-gradient-3" x1="155.204" y1="149.357" x2="182.189" y2="196.007" gradientUnits="userSpaceOnUse"><stop offset="0" stop-color="#fff"/><stop offset="0.175" stop-color="#fffcf9"/><stop offset="0.402" stop-color="#fff4e9"/><stop offset="0.659" stop-color="#ffe7ce"/><stop offset="0.935" stop-color="#ffd4a9"/><stop offset="1" stop-color="#ffcf9f"/></linearGradient><linearGradient id="linear-gradient-4" x1="270.354" y1="204.649" x2="244.378" y2="73.525" xlink:href="#linear-gradient-2"/><linearGradient id="linear-gradient-5" x1="-963.501" y1="620.279" x2="-993.298" y2="693.834" gradientTransform="translate(-752.03 1054.277) rotate(180)" xlink:href="#linear-gradient"/><linearGradient id="linear-gradient-6" x1="-1126.826" y1="673.634" x2="-1099.84" y2="720.284" gradientTransform="translate(-752.03 1054.277) rotate(180)" xlink:href="#linear-gradient-3"/><linearGradient id="linear-gradient-7" x1="-1011.676" y1="728.927" x2="-1037.651" y2="597.802" gradientTransform="translate(-752.03 1054.277) rotate(180)" xlink:href="#linear-gradient-2"/><linearGradient id="linear-gradient-8" x1="112.385" y1="191.686" x2="167.231" y2="191.686" gradientUnits="userSpaceOnUse"><stop offset="0" stop-color="#15b5c6"/><stop offset="0.095" stop-color="#22b9c9"/><stop offset="0.27" stop-color="#43c4d1"/><stop offset="0.504" stop-color="#79d5de"/><stop offset="0.787" stop-color="#c3ecf0"/><stop offset="1" stop-color="#fff"/></linearGradient><linearGradient id="linear-gradient-9" x1="362.769" y1="338.314" x2="417.615" y2="338.314" xlink:href="#linear-gradient-8"/><linearGradient id="linear-gradient-10" x1="298.974" y1="353.238" x2="319.336" y2="412.804" xlink:href="#linear-gradient-3"/><linearGradient id="linear-gradient-11" x1="195.076" y1="248.076" x2="352.868" y2="309.284" gradientUnits="userSpaceOnUse"><stop offset="0" stop-color="#fff"/><stop offset="0.165" stop-color="#fdfafa"/><stop offset="0.358" stop-color="#f8ecec"/><stop offset="0.566" stop-color="#f0d4d5"/><stop offset="0.783" stop-color="#e4b4b4"/><stop offset="1" stop-color="#d58b8c"/></linearGradient></defs><g style="isolation:isolate"><g id="Layer_1" data-name="Layer 1"><path d="M226.28,100.351c11.137-5.188,31.625-12.754,56.469-9.985,61.478,6.853,102.04,71.69,96.836,78.1-1.99,2.453-11.678-2.408-18.522-5.843-26.143-13.118-35.731-32.679-46.558-43.789C302.329,106.344,278.431,94.115,226.28,100.351Z" fill="#ffca95"/><path d="M226.28,100.351c11.137-5.188,31.625-12.754,56.469-9.985,61.478,6.853,102.04,71.69,96.836,78.1-1.99,2.453-11.678-2.408-18.522-5.843-26.143-13.118-35.731-32.679-46.558-43.789C302.329,106.344,278.431,94.115,226.28,100.351Z" fill="url(#linear-gradient)" style="mix-blend-mode:multiply"/><path d="M183.272,178.825c6.271.553,34.386,2.344,58.214-17.6a77.47,77.47,0,0,0,22.782-32.677c-15.319,3.888-24.822,10.477-30.085,14.929a130.153,130.153,0,0,0-13.676,14.04c-7.447,8.838-7.885,11.651-12.226,15.16C204.03,176.114,196.661,179.714,183.272,178.825Z" fill="#ffcf9f"/><path d="M183.272,178.825c6.271.553,34.386,2.344,58.214-17.6a77.47,77.47,0,0,0,22.782-32.677c-15.319,3.888-24.822,10.477-30.085,14.929a130.153,130.153,0,0,0-13.676,14.04c-7.447,8.838-7.885,11.651-12.226,15.16C204.03,176.114,196.661,179.714,183.272,178.825Z" fill="url(#linear-gradient-2)" style="mix-blend-mode:multiply"/><path d="M161.456,141.848l-20.933,17.169A126.37,126.37,0,0,0,159.6,195.74l36.246-16.692Z" fill="#ffcf9f"/><path d="M161.456,141.848l-20.933,17.169A126.37,126.37,0,0,0,159.6,195.74l36.246-16.692Z" fill="url(#linear-gradient-3)" style="mix-blend-mode:multiply"/><path d="M174.526,129.255a133.826,133.826,0,0,1,72.92-33.293,119.2,119.2,0,0,1,39.864,1.712c51.929,11.389,88.19,57.87,83.28,64.909-1.934,2.772-10.272-.018-18.859-2.891-27.79-9.3-30.727-23.991-48.918-30.913-23.981-9.124-54.852,2.72-71.988,17.407-15.34,13.149-13.617,23.386-27.914,29.432-19.056,8.057-46.656.249-50.342-13.094C149.621,151.852,162.705,139.981,174.526,129.255Z" fill="#ffcf9f"/><path d="M174.526,129.255a133.826,133.826,0,0,1,72.92-33.293,119.2,119.2,0,0,1,39.864,1.712c51.929,11.389,88.19,57.87,83.28,64.909-1.934,2.772-10.272-.018-18.859-2.891-27.79-9.3-30.727-23.991-48.918-30.913-23.981-9.124-54.852,2.72-71.988,17.407-15.34,13.149-13.617,23.386-27.914,29.432-19.056,8.057-46.656.249-50.342-13.094C149.621,151.852,162.705,139.981,174.526,129.255Z" fill="url(#linear-gradient-4)" style="mix-blend-mode:multiply"/><path d="M140.523,159.017a164.567,164.567,0,0,0,26.708,47.692l-30.523,17.647a83.112,83.112,0,0,1-24.323-44.831,67.4,67.4,0,0,1,28.138-20.508Z" fill="#57cad7"/><path d="M303.72,429.649c-11.137,5.188-31.625,12.754-56.469,9.985-61.478-6.853-102.04-71.69-96.836-78.1,1.99-2.453,11.678,2.408,18.522,5.843,26.143,13.118,35.731,32.679,46.558,43.789C227.671,423.656,251.569,435.885,303.72,429.649Z" fill="#ffca95"/><path d="M303.72,429.649c-11.137,5.188-31.625,12.754-56.469,9.985-61.478-6.853-102.04-71.69-96.836-78.1,1.99-2.453,11.678,2.408,18.522,5.843,26.143,13.118,35.731,32.679,46.558,43.789C227.671,423.656,251.569,435.885,303.72,429.649Z" fill="url(#linear-gradient-5)" style="mix-blend-mode:multiply"/><path d="M368.544,388.152l20.933-17.169A126.37,126.37,0,0,0,370.4,334.26l-36.246,16.692Z" fill="#ffcf9f"/><path d="M368.544,388.152l20.933-17.169A126.37,126.37,0,0,0,370.4,334.26l-36.246,16.692Z" fill="url(#linear-gradient-6)" style="mix-blend-mode:multiply"/><path d="M355.474,400.745a133.826,133.826,0,0,1-72.92,33.293,119.2,119.2,0,0,1-39.864-1.712c-51.929-11.389-88.19-57.87-83.28-64.909,1.934-2.772,10.272.018,18.859,2.891,27.79,9.3,30.727,23.991,48.918,30.913,23.981,9.124,54.852-2.72,71.988-17.407,15.34-13.149,13.617-23.386,27.914-29.432,19.056-8.057,46.656-.249,50.342,13.094C380.379,378.148,367.3,390.019,355.474,400.745Z" fill="#ffcf9f"/><path d="M355.474,400.745a133.826,133.826,0,0,1-72.92,33.293,119.2,119.2,0,0,1-39.864-1.712c-51.929-11.389-88.19-57.87-83.28-64.909,1.934-2.772,10.272.018,18.859,2.891,27.79,9.3,30.727,23.991,48.918,30.913,23.981,9.124,54.852-2.72,71.988-17.407,15.34-13.149,13.617-23.386,27.914-29.432,19.056-8.057,46.656-.249,50.342,13.094C380.379,378.148,367.3,390.019,355.474,400.745Z" fill="url(#linear-gradient-7)" style="mix-blend-mode:multiply"/><path d="M389.477,370.983a164.567,164.567,0,0,0-26.708-47.692l30.523-17.647a83.112,83.112,0,0,1,24.323,44.831,67.4,67.4,0,0,1-28.138,20.508Z" fill="#57cad7"/><path d="M140.523,159.017a164.567,164.567,0,0,0,26.708,47.692l-30.523,17.647a83.112,83.112,0,0,1-24.323-44.831,67.4,67.4,0,0,1,28.138-20.508Z" fill="url(#linear-gradient-8)" style="mix-blend-mode:multiply"/><path d="M389.477,370.983a164.567,164.567,0,0,0-26.708-47.692l30.523-17.647a83.112,83.112,0,0,1,24.323,44.831,67.4,67.4,0,0,1-28.138,20.508Z" fill="url(#linear-gradient-9)" style="mix-blend-mode:multiply"/><path d="M346.728,351.175c-11.874-4.828-31.007,7.12-46.913,30.565-22.2-.137-37.52,6.708-38.63,14.785-.716,5.2,4.145,13.273,10.969,15.738a15.48,15.48,0,0,0,8.108.477c13.009-2.2,27.383-8.073,35.053-11.446,27.092-14.088,42.616-30.912,39.346-41.969C353.04,353.841,347.276,351.4,346.728,351.175Z" fill="#ffcf9f"/><path d="M346.728,351.175c-11.874-4.828-31.007,7.12-46.913,30.565-22.2-.137-37.52,6.708-38.63,14.785-.716,5.2,4.145,13.273,10.969,15.738a15.48,15.48,0,0,0,8.108.477c13.009-2.2,27.383-8.073,35.053-11.446,27.092-14.088,42.616-30.912,39.346-41.969C353.04,353.841,347.276,351.4,346.728,351.175Z" fill="url(#linear-gradient-10)" style="mix-blend-mode:multiply"/><path d="M261.121,397.805a15.924,15.924,0,0,1,14.371-2.393l4.611,9.061a12.123,12.123,0,0,1-4.134,5.882,11.712,11.712,0,0,1-3.815,1.908,18.065,18.065,0,0,1-8.141-6.594A17.885,17.885,0,0,1,261.121,397.805Z" fill="#ffe2c5"/><path d="M342.023,229.125c-7.825-10.771-23.119-21.046-41.492-18.6a44.326,44.326,0,0,0-35.054,27.9,44.326,44.326,0,0,0-35.054-27.9c-18.373-2.446-33.667,7.829-41.492,18.6-17.888,24.62-.607,57.128.238,58.661,7.606,13.8,16.195,16.484,39.823,36.485a400.207,400.207,0,0,1,36.485,35.054,400.207,400.207,0,0,1,36.485-35.054c23.628-20,32.216-22.69,39.822-36.485C342.63,286.253,359.911,253.745,342.023,229.125Z" fill="#eea8aa"/><path d="M342.023,229.125c-7.825-10.771-23.119-21.046-41.492-18.6a44.326,44.326,0,0,0-35.054,27.9,44.326,44.326,0,0,0-35.054-27.9c-18.373-2.446-33.667,7.829-41.492,18.6-17.888,24.62-.607,57.128.238,58.661,7.606,13.8,16.195,16.484,39.823,36.485a400.207,400.207,0,0,1,36.485,35.054,400.207,400.207,0,0,1,36.485-35.054c23.628-20,32.216-22.69,39.822-36.485C342.63,286.253,359.911,253.745,342.023,229.125Z" fill="url(#linear-gradient-11)" style="mix-blend-mode:multiply"/></g></g></svg>