<svg xmlns="http://www.w3.org/2000/svg" xmlns:xlink="http://www.w3.org/1999/xlink" width="328.193" height="731.488" viewBox="0 0 328.193 731.488"><defs><style>.cls-1{isolation:isolate;}.cls-2{fill:#100500;}.cls-3{fill:#225e66;}.cls-4{fill:#ffcf9f;}.cls-11,.cls-15,.cls-16,.cls-18,.cls-22,.cls-24,.cls-26,.cls-5,.cls-6,.cls-8{mix-blend-mode:multiply;}.cls-5{fill:url(#linear-gradient);}.cls-6{fill:url(#linear-gradient-2);}.cls-7{fill:#2d5b6f;}.cls-8{fill:url(#linear-gradient-3);}.cls-9{fill:#dfe5e9;}.cls-10{fill:#57cad7;}.cls-11{fill:url(#linear-gradient-4);}.cls-12{fill:#79d5df;}.cls-13,.cls-25{opacity:0.35;}.cls-14{fill:#4198a1;}.cls-15{fill:url(#linear-gradient-5);}.cls-16{fill:url(#linear-gradient-6);}.cls-17{fill:#744100;}.cls-18{fill:url(#linear-gradient-7);}.cls-19{fill:#a7acaf;}.cls-20{fill:#5c9b68;}.cls-21{fill:#7bce8a;}.cls-22{fill:url(#linear-gradient-8);}.cls-23{fill:#f7bc55;}.cls-24{fill:url(#linear-gradient-9);}.cls-25,.cls-28{fill:none;stroke:#000;stroke-miterlimit:10;}.cls-26{fill:url(#linear-gradient-10);}.cls-27{fill:#1f0a00;}.cls-28{stroke-linecap:round;stroke-width:2px;}.cls-29{fill:#fff;}</style><linearGradient id="linear-gradient" x1="202.227" y1="324.813" x2="216.865" y2="324.813" gradientTransform="matrix(-1, 0, 0, 1, 314.361, 0)" gradientUnits="userSpaceOnUse"><stop offset="0" stop-color="#ffcf9f"/><stop offset="0.183" stop-color="#ffdbb6"/><stop offset="0.541" stop-color="#ffeede"/><stop offset="0.826" stop-color="#fffbf6"/><stop offset="1" stop-color="#fff"/></linearGradient><linearGradient id="linear-gradient-2" x1="125.663" y1="136.337" x2="155.253" y2="136.337" xlink:href="#linear-gradient"/><linearGradient id="linear-gradient-3" x1="79.953" y1="503.717" x2="268.874" y2="503.717" gradientTransform="matrix(-1, 0, 0, 1, 314.361, 0)" gradientUnits="userSpaceOnUse"><stop offset="0" stop-color="#15b5c6"/><stop offset="0.095" stop-color="#22b9c9"/><stop offset="0.27" stop-color="#43c4d1"/><stop offset="0.504" stop-color="#79d5de"/><stop offset="0.787" stop-color="#c3ecf0"/><stop offset="1" stop-color="#fff"/></linearGradient><linearGradient id="linear-gradient-4" x1="31.656" y1="244.925" x2="169.285" y2="244.925" xlink:href="#linear-gradient-3"/><linearGradient id="linear-gradient-5" x1="111.584" y1="141.699" x2="146.566" y2="141.699" xlink:href="#linear-gradient-3"/><linearGradient id="linear-gradient-6" x1="117.139" y1="100.425" x2="158.922" y2="100.425" xlink:href="#linear-gradient"/><linearGradient id="linear-gradient-7" x1="161.993" y1="259.844" x2="185.055" y2="259.844" xlink:href="#linear-gradient"/><linearGradient id="linear-gradient-8" x1="58.723" y1="367.873" x2="146.944" y2="367.873" xlink:href="#linear-gradient-3"/><linearGradient id="linear-gradient-9" x1="61.182" y1="337.253" x2="156.937" y2="337.253" gradientTransform="matrix(-1, 0, 0, 1, 314.361, 0)" gradientUnits="userSpaceOnUse"><stop offset="0" stop-color="#f7bc55"/><stop offset="0.123" stop-color="#f8c162"/><stop offset="0.349" stop-color="#f9ce83"/><stop offset="0.651" stop-color="#fce3b9"/><stop offset="1" stop-color="#fff"/></linearGradient><linearGradient id="linear-gradient-10" x1="138.645" y1="690.677" x2="163.013" y2="690.677" xlink:href="#linear-gradient"/></defs><g class="cls-1"><g id="Layer_1" data-name="Layer 1"><path class="cls-2" d="M146.42,662.464a56.038,56.038,0,0,0-6.75,32.786l11.678-.375,1.194-11.36-4.3-22.347Z"/><path class="cls-3" d="M195.277,128.732a60.415,60.415,0,0,0-31.974-1.379,7.375,7.375,0,0,0-3.062,3.308,7.2,7.2,0,0,0-.643,3,37.005,37.005,0,0,0,12,3.857c4.317.6,13.2,1.829,19.627-3.635A16.975,16.975,0,0,0,195.277,128.732Z"/><path class="cls-4" d="M98.757,277.465a388.571,388.571,0,0,0,3.949,94.7l9.428-6.429L110.4,278.5Z"/><path class="cls-5" d="M98.757,277.465a388.571,388.571,0,0,0,3.949,94.7l9.428-6.429L110.4,278.5Z"/><path class="cls-4" d="M188.7,135.641a18.406,18.406,0,0,1-3.064-5.141,19.1,19.1,0,0,1-.8-10.928l-16.715.16a14.441,14.441,0,0,1-2.893,9.643,14,14,0,0,1-5.625,4.286c-1.319,8.32,0,16.3,4.286,18.643C169.349,155.294,181.1,149.914,188.7,135.641Z"/><path class="cls-6" d="M188.7,135.641a18.406,18.406,0,0,1-3.064-5.141,19.1,19.1,0,0,1-.8-10.928l-16.715.16a14.441,14.441,0,0,1-2.893,9.643,14,14,0,0,1-5.625,4.286c-1.319,8.32,0,16.3,4.286,18.643C169.349,155.294,181.1,149.914,188.7,135.641Z"/><path class="cls-7" d="M234.392,389.005a138.84,138.84,0,0,1-2.794,29.977,137.072,137.072,0,0,1-8.116,26.116c-13.335,32.076-28.674,106.786-36.348,161.491-2.715,19.356-5.765,45.435-7.607,76.608a44.706,44.706,0,0,1-30.107-.75,1751.633,1751.633,0,0,1-.75-202.715q1.521-27.992,3.857-54.964l-47.25,46.286,40.984,127.279q.238,17.6.847,35.705.294,8.639.668,17.157l-7.785,5.537c-21.028-42.752-39.382-75.69-52.714-98.571,0,0-16.348-28.057-37.929-90-1.829-5.252-5.649-16.655-2.892-30.214,3.13-15.4,13.033-25.247,17.115-29.439,15.562-15.981,36.435-42.174,66.1-84.654a71.788,71.788,0,0,1,19.989-1.765C199.667,324.8,229.977,380.6,234.392,389.005Z"/><path class="cls-8" d="M234.392,389.005a138.84,138.84,0,0,1-2.794,29.977,137.072,137.072,0,0,1-8.116,26.116c-13.335,32.076-28.674,106.786-36.348,161.491-2.715,19.356-5.765,45.435-7.607,76.608a44.706,44.706,0,0,1-30.107-.75,1751.633,1751.633,0,0,1-.75-202.715q1.521-27.992,3.857-54.964l-47.25,46.286,40.984,127.279q.238,17.6.847,35.705.294,8.639.668,17.157l-7.785,5.537c-21.028-42.752-39.382-75.69-52.714-98.571,0,0-16.348-28.057-37.929-90-1.829-5.252-5.649-16.655-2.892-30.214,3.13-15.4,13.033-25.247,17.115-29.439,15.562-15.981,36.435-42.174,66.1-84.654a71.788,71.788,0,0,1,19.989-1.765C199.667,324.8,229.977,380.6,234.392,389.005Z"/><path class="cls-9" d="M170.569,152.627a7.476,7.476,0,0,1-9.248-2.9c-14.3,20.54-36.13,58.1-43.187,109.5a246.969,246.969,0,0,0,0,66.857c9.881-3.35,16.64-2.387,21.054-.8,5.306,1.9,6.787,4.551,11.893,5.786,0,0,8.241,1.992,19.285-4.018,16.942-9.221,42.34-58.66,30.482-113.465C198.086,200.822,191.068,177.439,170.569,152.627Z"/><path class="cls-10" d="M202.777,139.018a145.233,145.233,0,0,1,24.643,45.857c13.477,42.25-4.381,56.946,12,87.857,9.89,18.663,22.188,24.228,35.571,54.857a187.018,187.018,0,0,1,7.715,21c-10.2-9.426-19.235-12.3-25.286-13.285-24.529-3.984-36.935,17.145-69.429,15.428-15.433-.815-21.407-6.045-23.143-7.714-8.6-8.267-10.032-22.322-10.285-25.714-.532-7.127.9-10.9-1.286-18.429a42.288,42.288,0,0,0-5.571-11.571c-10.156-16.815,12.571-36.381,9.857-69.857-1.135-13.994-6.382-26.309,1.047-35.413,2.225-2.726,4.452-3.774,7.1-7.659,5.252-7.72,5.434-16.773,4.714-23.357a6.75,6.75,0,0,1-.054-4.286,7.108,7.108,0,0,1,1.768-2.571C174.309,142.161,186.27,140.1,202.777,139.018Z"/><path class="cls-11" d="M202.777,139.018a145.233,145.233,0,0,1,24.643,45.857c13.477,42.25-4.381,56.946,12,87.857,9.89,18.663,22.188,24.228,35.571,54.857a187.018,187.018,0,0,1,7.715,21c-10.2-9.426-19.235-12.3-25.286-13.285-24.529-3.984-36.935,17.145-69.429,15.428-15.433-.815-21.407-6.045-23.143-7.714-8.6-8.267-10.032-22.322-10.285-25.714-.532-7.127.9-10.9-1.286-18.429a42.288,42.288,0,0,0-5.571-11.571c-10.156-16.815,12.571-36.381,9.857-69.857-1.135-13.994-6.382-26.309,1.047-35.413,2.225-2.726,4.452-3.774,7.1-7.659,5.252-7.72,5.434-16.773,4.714-23.357a6.75,6.75,0,0,1-.054-4.286,7.108,7.108,0,0,1,1.768-2.571C174.309,142.161,186.27,140.1,202.777,139.018Z"/><path class="cls-12" d="M181.456,182.732a223.158,223.158,0,0,0-14.465,64.929,20.688,20.688,0,0,0-5.866-1.286q1.782,1.006,3.7,2.009,2.131,1.115,4.178,2.089c.558-7.508,1.413-15.429,2.652-23.705A320.922,320.922,0,0,1,181.456,182.732Z"/><path class="cls-13" d="M156.848,140.3a45.839,45.839,0,0,0-6.391,3.066,51.839,51.839,0,0,0-5.715,3.942c-17.795,14.37-28.876,57.84-28.876,57.84-4.64,18.2-9.3,39.1-13.339,62.437.255.278,3.544,3.751,7.714,2.893a7.2,7.2,0,0,0,3.215-1.607c2.25,14.538.351,25.229-1.929,32.464-2.892,9.176-7.571,16.52-10.929,31.822-1.029,4.69-1.6,8.615-1.928,11.25a82.822,82.822,0,0,1,13.5.964c6.984,1.082,9.726,2.437,13.178.964,4.409-1.88,6.241-6.777,7.072-9,3.068-8.2.936-15.792-.322-21.214,0,0-2.381-10.284-3.535-32.464-1.457-28,9.29-53.386,11.643-58.714,2.586-5.857,5.512-11.211,7.629-20.449,2.429-10.6,1.405-15.893,2.442-24.337.964-7.849,3.758-18.816,12.054-31.661Z"/><path class="cls-10" d="M152.848,140.3a45.839,45.839,0,0,0-6.391,3.066,51.839,51.839,0,0,0-5.715,3.942c-17.795,14.37-28.876,57.84-28.876,57.84-4.64,18.2-9.3,39.1-13.339,62.437.255.278,3.544,3.751,7.714,2.893a7.2,7.2,0,0,0,3.215-1.607c2.25,14.538.351,25.229-1.929,32.464-2.892,9.176-7.571,16.52-10.929,31.822-1.029,4.69-1.6,8.615-1.928,11.25a82.822,82.822,0,0,1,13.5.964c6.984,1.082,9.726,2.437,13.178.964,4.409-1.88,6.241-6.777,7.072-9,3.068-8.2.936-15.792-.322-21.214,0,0-2.35-10.133-3.535-32.464-.351-6.6-1.934-36.447,13.5-59.786,3.348-5.062,8.063-10.676,9.964-20.25,1.517-7.642-.7-8.054.321-19.178,1.414-15.456,6.631-25,7.822-27.108a57.359,57.359,0,0,1,6.161-8.839Z"/><path class="cls-14" d="M98.527,267.589a6.046,6.046,0,0,0-2.893,2.733,5.5,5.5,0,0,0-.482,4.017c.785,2.351,3.59,3.2,5.786,3.858a18.93,18.93,0,0,0,9.464.3c-.084-2-.241-4.1-.5-6.305q-.2-1.71-.45-3.319a7.553,7.553,0,0,1-10.929-1.286Z"/><path class="cls-13" d="M109.456,268.875a65.863,65.863,0,0,1,1.125-24.75c.568-2.354,1.069-3.851,1.687-5.786,4.863-15.222,6.12-23.668,9.08-34.392a182.524,182.524,0,0,1,8.676-24.533c1.569-3.58,2.26-5.036,2.253-5.039a167.421,167.421,0,0,0-14.625,36.161c-1.635,6.016-1.765,8.014-4.179,16.312-2.826,9.719-3.958,11.485-5.083,17.985a108.585,108.585,0,0,0-1.4,14.881c-.148,4.179-.074,7.723.043,10.372Z"/><path class="cls-12" d="M167.8,143.357l5.972,11.308a40.062,40.062,0,0,0,22.956-9.058,36.714,36.714,0,0,0,6.054-6.589,11.442,11.442,0,0,0-3.643-8.2,10.274,10.274,0,0,0-3.857-2.09,30.809,30.809,0,0,1-5.571,6.536C181.5,142.52,171.643,143.276,167.8,143.357Z"/><path class="cls-15" d="M167.8,143.357l5.972,11.308a40.062,40.062,0,0,0,22.956-9.058,36.714,36.714,0,0,0,6.054-6.589,11.442,11.442,0,0,0-3.643-8.2,10.274,10.274,0,0,0-3.857-2.09,30.809,30.809,0,0,1-5.571,6.536C181.5,142.52,171.643,143.276,167.8,143.357Z"/><path class="cls-12" d="M163.3,127.353a15.562,15.562,0,0,0-7.24,6.2c-3,5.045-2.689,11.664.643,17.25l8.571-7.072a9.783,9.783,0,0,1-4.5-4.5C159.075,135.549,160.068,130.845,163.3,127.353Z"/><path class="cls-4" d="M195.85,103.822a33.759,33.759,0,0,1-4.339,10.607c-1.566,2.491-9.249,14.711-18.965,13.5-8.465-1.056-12.94-11.617-14.134-14.437A30.777,30.777,0,0,1,156.154,99c-.323-1.223-2.663-10.711,3.375-18.482,5.992-7.713,16.914-9.461,24.91-5.946C194.441,78.968,199.964,91.641,195.85,103.822Z"/><path class="cls-16" d="M195.85,103.822a33.759,33.759,0,0,1-4.339,10.607c-1.566,2.491-9.249,14.711-18.965,13.5-8.465-1.056-12.94-11.617-14.134-14.437A30.777,30.777,0,0,1,156.154,99c-.323-1.223-2.663-10.711,3.375-18.482,5.992-7.713,16.914-9.461,24.91-5.946C194.441,78.968,199.964,91.641,195.85,103.822Z"/><path class="cls-17" d="M191.671,87.911c-.468,1.9-1.122,5.66.366,8.655.571,1.15.943,1.275,2.361,3.687,1.24,2.108,1.647,3.238,3.672.832,5.774-6.861,5.3-5.88,6.6-8.68,0,0,4.774-10.234,1.033-21.1-1.011-2.937-2.174-4.081-3.428-4.5a4.823,4.823,0,0,0-3.367.282,14.94,14.94,0,0,0-2.955-8.1c-.275-.361-4.392-5.612-10.383-5.625-3.19-.006-4.247,1.478-8.258,3.219a36.066,36.066,0,0,1-33-2.951,41.164,41.164,0,0,0-1.339,12.911c.326,5.754,1.8,9.885,3.61,14.827a96.131,96.131,0,0,0,8.979,18.226,12.6,12.6,0,0,0,2.77-9.841,13.067,13.067,0,0,0,4.945,7.484c5.915,4.011,13.953.472,17.5-1.091A30.261,30.261,0,0,0,191.671,87.911Z"/><path class="cls-13" d="M158.67,279.964a163.834,163.834,0,0,0,.321-17.517c-.229-6.671-.3-10.051,1.715-12.215,1.13-1.213,2.735-2.056,2.794-3.712a4,4,0,0,0-2.58-3.573c-2.494-.892-5.6,1.539-7.179,3.428-4.144,4.971-3.927,13.7-2.035,19.393.872,2.624,2.193,4.877,1.5,7.929-.331,1.455-1.026,2.681-.75,4.714a5,5,0,0,0,1.715,3.468c.844.64,2.312,1.193,3.32.6A3.254,3.254,0,0,0,158.67,279.964Z"/><path class="cls-14" d="M157.67,279.964a163.834,163.834,0,0,0,.321-17.517c-.229-6.671-.3-10.051,1.715-12.215,1.13-1.213,2.735-2.056,2.794-3.712a4,4,0,0,0-2.58-3.573c-2.494-.892-5.6,1.539-7.179,3.428-4.144,4.971-3.927,13.7-2.035,19.393.872,2.624,2.193,4.877,1.5,7.929-.331,1.455-1.026,2.681-.75,4.714a5,5,0,0,0,1.715,3.468c.844.64,2.312,1.193,3.32.6A3.254,3.254,0,0,0,157.67,279.964Z"/><path class="cls-4" d="M151.92,247.5c-2.116.226-4.382.4-6.786.483-2.424.087-4.715.077-6.857,0a4.55,4.55,0,0,0,1.286-3.857,4.3,4.3,0,0,0-1.607-2.571,7.951,7.951,0,0,0-7.929,5.571c-.106.247-1.968,4.8.75,8.464a8.105,8.105,0,0,0,4.286,2.893c.675,1.341,1.669,3.206,3,5.357a45.264,45.264,0,0,0,7.358,9.655,36.116,36.116,0,0,0,6.006,4.647,11.466,11.466,0,0,1,.23-2.5c.188-.922.393-1.341.549-1.939a8.621,8.621,0,0,0-.116-3.935,25.074,25.074,0,0,0-1.7-5.036,19.291,19.291,0,0,1-.913-9.116A22.349,22.349,0,0,1,151.92,247.5Z"/><path class="cls-18" d="M151.92,247.5c-2.116.226-4.382.4-6.786.483-2.424.087-4.715.077-6.857,0a4.55,4.55,0,0,0,1.286-3.857,4.3,4.3,0,0,0-1.607-2.571,7.951,7.951,0,0,0-7.929,5.571c-.106.247-1.968,4.8.75,8.464a8.105,8.105,0,0,0,4.286,2.893c.675,1.341,1.669,3.206,3,5.357a45.264,45.264,0,0,0,7.358,9.655,36.116,36.116,0,0,0,6.006,4.647,11.466,11.466,0,0,1,.23-2.5c.188-.922.393-1.341.549-1.939a8.621,8.621,0,0,0-.116-3.935,25.074,25.074,0,0,0-1.7-5.036,19.291,19.291,0,0,1-.913-9.116A22.349,22.349,0,0,1,151.92,247.5Z"/><path class="cls-19" d="M137.822,263.446A188.994,188.994,0,0,0,161.216,330.6q1.179,6.908,2.36,13.814a111.286,111.286,0,0,1-9.013-13.024c-9.078-15.352-12.279-29.248-15.643-44.4a258.755,258.755,0,0,1-4.714-28.928l.857.428Z"/><path class="cls-19" d="M136.159,241.7c-.732-4.6-1.644-11.171-2.275-19.107-1.165-14.659-2.324-29.242,1.125-45.964a111.871,111.871,0,0,1,13.379-34.311l-3.274,1.884q-.934,1.554-1.823,3.154c-10.133,18.242-19.994,48.6-10.478,95.809Z"/><path class="cls-13" d="M224.527,188.839c-.418-.009.374,16.8-3.536,39.536a138.762,138.762,0,0,1-13.339,41.3c-5.266,10.154-9.295,14.47-14.625,16.232-4.527,1.5-8.774.747-17.036-.8a107.539,107.539,0,0,1-18.321-5.143,3.113,3.113,0,0,1-1.179,2.518c-1.305.8-3.04-.231-3.857-1.071a4.437,4.437,0,0,1-1.178-3l-6.035-4.917a58.022,58.022,0,0,1-10.358-15.012l-1.481-.574c.391.675,1.09,1.868,1.99,3.333,7.5,12.219,9.217,11.145,13.66,18.563a9.864,9.864,0,0,0,4.1,4.178,8.923,8.923,0,0,0,4.58.8,61.278,61.278,0,0,0,19.205,6.268c5.236.783,11.376,1.7,17.09-.107,11-3.483,15.665-15.708,21-28.5,6.932-16.623,8.113-31.108,9.214-46.072C225.545,201.079,224.884,188.847,224.527,188.839Z"/><path class="cls-19" d="M237.277,319.875a177.43,177.43,0,0,0-4.533-94.675q.025-5.373.05-10.745c2.073,5.349,4,11.007,5.715,16.974,10.034,34.934,8.873,67.086,4.982,91.66Z"/><path class="cls-13" d="M166.777,347.875a15.417,15.417,0,0,1,4.627,3.805c7.421-3.3,24.04-2.946,39.944-2.519,16.937.455,31.146.92,41.572,1.286,1.958,11.769-1.553,22.775-9.429,28.142a20.8,20.8,0,0,1-9.643,3.429,108.346,108.346,0,0,1,.549,10.927c0,2.108-.063,4.136-.173,6.076-3.254.3-6.9.727-10.876,1.354-6.657,1.051-33.23,5.987-41.785,6.429-2.173.112-5.617.24-8.357-1.929a4.643,4.643,0,0,1-.953-1c-2.363.438-5.254-4.178-8.047-8.64a35.044,35.044,0,0,1-5.143-15.214q-.721-16.876-1.442-33.754A16.569,16.569,0,0,1,166.777,347.875Z"/><path class="cls-20" d="M172.253,393.872c-2.363.438-5.254-4.178-8.047-8.64a35.044,35.044,0,0,1-5.143-15.214q-.721-16.876-1.442-33.754a16.569,16.569,0,0,1,9.156,1.611C184.316,347.066,179.2,392.582,172.253,393.872Z"/><path class="cls-21" d="M252.92,340.447a102.888,102.888,0,0,1,2.357,31.928c-.583,6.67-1.489,8.908-2.786,10.714-4.644,6.471-12.27,4.585-29.143,7.286-11.994,1.92-24.914,5.558-41.785,6.429-2.173.112-5.617.24-8.357-1.929-1.131-.895-3.4-3.173-4.5-18-.584-7.84.038-7.349-.643-14.786a110.663,110.663,0,0,1-.643-11.142,32.987,32.987,0,0,1,.181-5.744c2.223-7.014,23.567-6.584,43.747-6.042C228.285,339.616,242.494,340.081,252.92,340.447Z"/><path class="cls-22" d="M252.92,340.447a102.888,102.888,0,0,1,2.357,31.928c-.583,6.67-1.489,8.908-2.786,10.714-4.644,6.471-12.27,4.585-29.143,7.286-11.994,1.92-24.914,5.558-41.785,6.429-2.173.112-5.617.24-8.357-1.929-1.131-.895-3.4-3.173-4.5-18-.584-7.84.038-7.349-.643-14.786a110.663,110.663,0,0,1-.643-11.142,32.987,32.987,0,0,1,.181-5.744c2.223-7.014,23.567-6.584,43.747-6.042C228.285,339.616,242.494,340.081,252.92,340.447Z"/><path class="cls-13" d="M252.92,342.447c1.147-4.642-1.788-9.361-3.429-12-5.36-8.619-14.689-11.033-18.428-12-2.4-.621-5.631-1.21-25.715.642-9.393.867-14.217,1.305-20.357,2.358-17.277,2.962-22.69,6.421-25.553,10.5-.79,1.125-2.612,3.8-1.817,6.317.814,2.583,3.706,2.881,6.367,4.991,4.971,3.943,3.4,9.665,5.789,13.549,1.642,2.67,6.77,6.708,42.857.857C235.1,354.018,250.728,351.311,252.92,342.447Z"/><path class="cls-23" d="M252.92,340.447c1.147-4.642-1.788-9.361-3.429-12-5.36-8.619-14.689-11.033-18.428-12-2.4-.621-5.631-1.21-25.715.642-9.393.867-14.217,1.305-20.357,2.358-17.277,2.962-22.69,6.421-25.553,10.5-.79,1.125-2.612,3.8-1.817,6.317.814,2.583,3.706,2.881,6.367,4.991,4.971,3.943,3.4,9.665,5.789,13.549,1.642,2.67,6.77,6.708,42.857.857C235.1,352.018,250.728,349.311,252.92,340.447Z"/><path class="cls-24" d="M252.92,340.447c1.147-4.642-1.788-9.361-3.429-12-5.36-8.619-14.689-11.033-18.428-12-2.4-.621-5.631-1.21-25.715.642-9.393.867-14.217,1.305-20.357,2.358-17.277,2.962-22.69,6.421-25.553,10.5-.79,1.125-2.612,3.8-1.817,6.317.814,2.583,3.706,2.881,6.367,4.991,4.971,3.943,3.4,9.665,5.789,13.549,1.642,2.67,6.77,6.708,42.857.857C235.1,352.018,250.728,349.311,252.92,340.447Z"/><path class="cls-25" d="M248.42,360.161c1.178,1.489,1.447,3.642,1.714,5.786.149,1.19.856,6.859-1.5,10.928-.891,1.538-3.491,5.045-21.857,7.714-7.33,1.066-7.675.618-15,1.5-17.935,2.162-24.652,5.908-28.026,2.224-1.316-1.437-1.464-4.2-1.76-9.724-.308-5.752-.48-8.962.643-11.357,3.651-7.787,18.331-1.294,45-6.857C235.542,358.726,245.05,355.9,248.42,360.161Z"/><path class="cls-4" d="M175.716,684.266l-1.653,12.752a33.8,33.8,0,0,1-22.715-2.143l.447-11.591a44.74,44.74,0,0,0,23.921.982Z"/><path class="cls-26" d="M175.716,684.266l-1.653,12.752a33.8,33.8,0,0,1-22.715-2.143l.447-11.591a44.74,44.74,0,0,0,23.921.982Z"/><path class="cls-4" d="M143.5,654.234q1.458,4.116,2.917,8.23l1.82-1.3q-.129-2.6-.25-5.2-.111-2.391-.214-4.77Z"/><path class="cls-27" d="M150.271,694.91a35.4,35.4,0,0,0-10.6.34c-12.144,2.258-24,11.175-23.036,15.7.909,4.246,13.691,7.219,58.714,4.285a21.528,21.528,0,0,0-1.285-18.214,38.534,38.534,0,0,1-23.792-2.108Z"/><path class="cls-13" d="M152.379,426.513c.888-5.778,1.639-11.9,2.184-18.352a271.421,271.421,0,0,0,.857-30.429,158.846,158.846,0,0,1-9.857,35.572,162.35,162.35,0,0,1-40.286,57.75Z"/><path class="cls-13" d="M184.39,123.215a13.106,13.106,0,0,1-17.181,2.6c.118.267,2.384,5.185,7.738,5.89a9.966,9.966,0,0,0,9.713-4.7Z"/><path class="cls-28" d="M185.259,101.331v3.776"/><path class="cls-28" d="M166.67,101.331v3.776"/><path class="cls-29" d="M180.973,115.5a33.083,33.083,0,0,1-12.321-.7,6.173,6.173,0,0,0,12.321.7Z"/></g></g></svg>